<?xml version="1.0" encoding="utf-8"?>
<!-- Generator: Adobe Illustrator 25.0.1, SVG Export Plug-In . SVG Version: 6.00 Build 0)  -->
<svg version="1.1" id="Layer_1" xmlns="http://www.w3.org/2000/svg" xmlns:xlink="http://www.w3.org/1999/xlink" x="0px" y="0px"
	 viewBox="0 0 434.4 464" style="enable-background:new 0 0 434.4 464;" xml:space="preserve">
<style type="text/css">
	.st0{fill:#31B6EC;}
</style>
<g>
	<path class="st0" d="M217.2,209.6c42.7,0,77.5-34.8,77.5-77.5s-34.8-77.5-77.5-77.5s-77.5,34.8-77.5,77.5S174.5,209.6,217.2,209.6z
		 M217.2,74.6c31.7,0,57.5,25.8,57.5,57.5s-25.8,57.5-57.5,57.5s-57.5-25.8-57.5-57.5S185.5,74.6,217.2,74.6z"/>
	<path class="st0" d="M389.6,285.2c-1.2-4.4-5.1-7.4-9.7-7.4h-72.6l15.3-16c58-60,58.6-157.5,1.5-217.2C296.7,15.8,260,0,220.7,0
		l0,0c-40,0-77.7,16.3-106,46c-57.9,60-58.6,157.5-1.5,217.2l13.9,14.6H54.5c-4.5,0-8.5,3-9.7,7.4L0.3,451.4c-0.8,3-0.2,6.2,1.7,8.7
		s4.8,3.9,7.9,3.9h414.5c3.1,0,6-1.4,7.9-3.9s2.5-5.7,1.7-8.7L389.6,285.2z M129.1,59.8C153.7,34.1,186.2,20,220.7,20l0,0
		c33.8,0,65.4,13.6,89,38.3c49.8,52.1,49.2,137.1-1.5,189.6l-91,95.1l-89.6-93.6C77.8,197.3,78.5,112.3,129.1,59.8z M226.9,444
		v-28.8c0-5.5-4.5-10-10-10s-10,4.5-10,10V444H23l18.2-68h51.7c5.5,0,10-4.5,10-10s-4.5-10-10-10H46.6l15.6-58.2h84.1l63.7,66.6
		c1.9,2,4.5,3.1,7.2,3.1l0,0c2.7,0,5.3-1.1,7.2-3.1l63.8-66.6h84l15.6,58.2h-47.9c-5.5,0-10,4.5-10,10s4.5,10,10,10h53.3l18.2,68
		H226.9z"/>
</g>
</svg>
