<?xml version="1.0" encoding="utf-8"?>
<!-- Generator: Adobe Illustrator 25.0.1, SVG Export Plug-In . SVG Version: 6.00 Build 0)  -->
<svg version="1.1" id="Layer_1" xmlns="http://www.w3.org/2000/svg" xmlns:xlink="http://www.w3.org/1999/xlink" x="0px" y="0px"
	 viewBox="0 0 88 72.7" style="enable-background:new 0 0 88 72.7;" xml:space="preserve">
<style type="text/css">
	.st0{fill:#31B6EC;}
</style>
<path class="st0" d="M76.2,30.7c0.7,0,1.3,0,1.8-0.1c3.5-0.3,7-1.6,8.5-3.2c1.5-1.5,2-3.9,1.2-6.8c-0.7-2.7-2.4-5.5-4.9-8
	c-2.4-2.4-5.2-4.1-8-4.9S69.5,7.4,68,8.9c-0.9,0.9-1.6,2.3-2.2,4l0,0l0,0C61.7,5.3,53.5,0,44.1,0S26.5,5.2,22.2,12.9
	c-0.6-1.7-1.4-3.1-2.2-4c-1.5-1.5-3.9-2-6.8-1.2c-2.7,0.7-5.5,2.4-8,4.9s-4.1,5.2-4.9,8c-0.6,2.8-0.2,5.3,1.3,6.8
	c1.6,1.6,5,2.9,8.5,3.2c0.5,0,1.1,0.1,1.8,0.1c0.5,0,1,0,1.6-0.1c-2.6,4-4.1,8.6-4.1,13.5c0,15.8,15.5,28.6,34.7,28.6
	c19.1,0,34.7-12.8,34.7-28.6c0-4.9-1.5-9.5-4.1-13.5l0,0l0,0C75.2,30.7,75.7,30.7,76.2,30.7z M72.8,28.2c-1.1-1.4-2.4-2.7-3.8-3.9
	c-0.1-1.9-0.3-3.8-0.8-5.6c0.2-0.5,0.5-0.9,0.7-1.1c1.3-1.3,4.5-0.4,6.9,2.1c2.4,2.4,3.4,5.6,2.1,6.9c-0.6,0.6-2.3,1.3-4.2,1.5
	C73.5,28.1,73.2,28.2,72.8,28.2z M14.5,28.1c-2-0.2-3.6-0.9-4.2-1.5C9.7,26,9.6,25,9.9,23.7c0.4-1.4,1.2-2.8,2.5-4.1
	c1.7-1.7,3.7-2.7,5.3-2.7c0.7,0,1.2,0.2,1.6,0.6c0.2,0.2,0.5,0.6,0.7,1.1l0,0c-0.5,1.8-0.7,3.6-0.8,5.6c-1.4,1.2-2.7,2.5-3.8,3.9
	C15,28.2,14.7,28.1,14.5,28.1z M44.1,68.2c-15.1,0-27.4-10.1-27.4-22.6c0-5.9,2.8-11.3,7.3-15.3c-0.2-0.7-0.3-1.5-0.3-2.3
	c0-3.1,1.4-5.8,3.5-7.7c1.8-1.5,4.1-2.5,6.7-2.5c4,0,7.5,2.4,9.2,5.8l0,0c0.1,0.1,0.1,0.2,0.2,0.3c0.2,0.3,0.5,0.4,0.8,0.4
	s0.7-0.2,0.8-0.4c0-0.1,0.1-0.2,0.2-0.3c1.6-3.4,5.1-5.8,9.2-5.8c2.5,0,4.9,0.9,6.7,2.5c2.2,1.9,3.5,4.6,3.5,7.7
	c0,0.8-0.1,1.6-0.3,2.3c4.5,4,7.3,9.4,7.3,15.3C71.5,58.1,59.2,68.2,44.1,68.2z"/>
<path class="st0" d="M30.4,33.2c0.3,0.2,0.6,0.3,0.9,0.5c0.6,0.2,1.3,0.4,2,0.4c3.1,0,5.6-2.5,5.6-5.6c0-0.8-0.2-1.6-0.5-2.3
	c-0.1-0.2-0.2-0.5-0.4-0.7c-0.5-0.8-1.2-1.5-2-1.9c-0.8-0.5-1.8-0.7-2.8-0.7c-3.1,0-5.6,2.5-5.6,5.6c0,1,0.3,1.9,0.7,2.8
	C28.9,32,29.6,32.7,30.4,33.2z M30.9,25.5c0.1,0,0.2,0.1,0.3,0.2l0,0v0.1c0,0.2-0.2,0.3-0.3,0.3h-0.1c0,0,0,0-0.1,0
	c-0.1-0.1-0.2-0.2-0.2-0.3C30.6,25.6,30.7,25.5,30.9,25.5z M31.2,26.5c0.1,0,0.2,0,0.3,0c0-0.3,0.3-0.6,0.7-0.6
	c0.2,0,0.5,0.1,0.6,0.3v0.1c0,0.1,0.1,0.2,0.1,0.3c0,0.4-0.3,0.7-0.7,0.7h-0.1l0,0c0,0.5-0.4,0.8-0.8,0.8c-0.1,0-0.2,0-0.3-0.1
	c0,0-0.1,0-0.1-0.1c-0.2-0.1-0.4-0.4-0.4-0.7C30.4,26.9,30.8,26.5,31.2,26.5z"/>
<path class="st0" d="M51.9,33.2c0.3,0.2,0.6,0.3,0.9,0.5c0.6,0.2,1.3,0.4,2,0.4c3.1,0,5.6-2.5,5.6-5.6c0-0.8-0.2-1.6-0.5-2.3
	c-0.1-0.2-0.2-0.5-0.4-0.7c-0.5-0.8-1.2-1.5-2-1.9c-0.8-0.5-1.8-0.7-2.8-0.7c-3.1,0-5.6,2.5-5.6,5.6c0,1,0.3,1.9,0.7,2.8
	C50.5,32,51.1,32.7,51.9,33.2z M52.5,25.5c0.1,0,0.2,0.1,0.3,0.2l0,0v0.1c0,0.2-0.2,0.3-0.3,0.3h-0.1c0,0,0,0-0.1,0
	c-0.1-0.1-0.2-0.2-0.2-0.3C52.1,25.6,52.3,25.5,52.5,25.5z M52.8,26.5c0.1,0,0.2,0,0.3,0c0-0.3,0.3-0.6,0.7-0.6
	c0.2,0,0.5,0.1,0.6,0.3v0.1c0,0.1,0.1,0.2,0.1,0.3c0,0.4-0.3,0.7-0.7,0.7h-0.1l0,0c0,0.5-0.4,0.8-0.8,0.8c-0.1,0-0.2,0-0.3-0.1
	c0,0-0.1,0-0.1-0.1c-0.2-0.1-0.4-0.4-0.4-0.7C52,26.9,52.3,26.5,52.8,26.5z"/>
<path class="st0" d="M62.6,44.1c-0.4,0-0.7,0.3-0.7,0.7c0,9.8-8,17.8-17.8,17.8s-17.8-8-17.8-17.8c0-0.4-0.3-0.7-0.7-0.7
	s-0.7,0.3-0.7,0.7c0,2.6,0.5,5.1,1.5,7.5c1,2.3,2.3,4.3,4.1,6.1c1.8,1.8,3.8,3.1,6.1,4.1c2.4,1,4.9,1.5,7.5,1.5s5.1-0.5,7.5-1.5
	c2.3-1,4.3-2.3,6.1-4.1c1.8-1.8,3.1-3.8,4.1-6.1c1-2.4,1.5-4.9,1.5-7.5C63.2,44.4,62.9,44.1,62.6,44.1z"/>
<path class="st0" d="M41.3,42.7c0.1,0,0.2,0.1,0.3,0.1c0.7,0,1.5-0.9,1.7-1.4c0.1-0.3,0.1-0.7,0-1c-0.1-0.3-0.4-0.6-0.7-0.7
	c-0.7-0.3-1.5,0.1-1.7,0.7C40.5,41,40.5,42.4,41.3,42.7z"/>
<path class="st0" d="M45.7,42.4c0.4,0.3,0.7,0.4,0.9,0.4c0.1,0,0.2,0,0.3-0.1c0.3-0.1,0.6-0.4,0.6-1.1c0-0.4,0-0.9-0.1-1.2
	c-0.1-0.3-0.4-0.6-0.7-0.7c-0.3-0.1-0.7-0.1-1,0c-0.7,0.3-1,1.1-0.7,1.7C45.1,41.7,45.4,42.1,45.7,42.4z"/>
</svg>
