<?xml version="1.0" encoding="utf-8"?>
<!-- Generator: Adobe Illustrator 25.0.1, SVG Export Plug-In . SVG Version: 6.00 Build 0)  -->
<svg version="1.1" id="Layer_1" xmlns="http://www.w3.org/2000/svg" xmlns:xlink="http://www.w3.org/1999/xlink" x="0px" y="0px"
	 viewBox="0 0 70 58.7" style="enable-background:new 0 0 70 58.7;" xml:space="preserve">
<style type="text/css">
	.st0{fill:#31B6EC;stroke:#31B6EC;stroke-miterlimit:10;}
</style>
<g>
	<path class="st0" d="M62.6,13.6h-7.2c-1.3,0-2.3,1-2.3,2.3v1.4c0,1.3,1,2.3,2.3,2.3h7.2c1.3,0,2.3-1,2.3-2.3V16
		C64.9,14.7,63.9,13.6,62.6,13.6z M62.9,17.4c0,0.2-0.1,0.3-0.3,0.3h-7.2c-0.2,0-0.3-0.1-0.3-0.3V16c0-0.2,0.1-0.3,0.3-0.3h7.2
		c0.2,0,0.3,0.1,0.3,0.3V17.4z"/>
	<path class="st0" d="M35,26.6c-0.6,0-1,0.5-1,1s0.5,1,1,1c4.7,0,8.4,3.8,8.4,8.4c0,0.6,0.5,1,1,1s1-0.5,1-1
		C45.5,31.3,40.8,26.6,35,26.6z"/>
	<path class="st0" d="M35,21.8c-8.4,0-15.2,6.8-15.2,15.2c0,4.7,2.1,8.9,5.5,11.7c1,0.8,2,1.5,3.1,2c2,1,4.3,1.5,6.7,1.5
		s4.7-0.6,6.7-1.5c1.1-0.6,2.2-1.2,3.1-2c3.3-2.8,5.5-7,5.5-11.7C50.3,28.6,43.4,21.8,35,21.8z M41.2,48.8c-1.8,1-3.9,1.5-6.2,1.5
		s-4.3-0.6-6.2-1.5c-4.2-2.2-7.1-6.6-7.1-11.7c0-7.3,5.9-13.2,13.2-13.2S48.3,29.7,48.3,37C48.2,42.1,45.4,46.5,41.2,48.8z"/>
	<path class="st0" d="M63.6,9.5H45.7h-0.2L44.7,4c-0.2-1.4-1.4-2.5-2.9-2.5h-6.7h-0.3h-6.7c-1.4,0-2.7,1-2.9,2.5l-0.8,5.5h-0.2h-6
		V7.9c0-1.3-1-2.3-2.3-2.3H8.7c-1.3,0-2.3,1-2.3,2.3v1.6l0,0c-2.9,0-5.3,2.4-5.3,5.3v30.7c0,2.9,2.4,5.3,5.3,5.3H20
		c3.7,4.1,9,6.7,15,6.7c5.9,0,11.3-2.6,15-6.7h13.6c2.9,0,5.3-2.4,5.3-5.3V14.8C68.9,11.9,66.5,9.5,63.6,9.5z M28.1,3.6h6.7h0.3h6.7
		c0.4,0,0.8,0.3,0.9,0.8l0.8,5.2h-1.6h-0.2l-0.4-2.4c-0.1-0.9-0.9-1.6-1.9-1.6H35h-0.2h-4.3c-0.9,0-1.7,0.7-1.9,1.6l-0.4,2.4H28
		h-1.6l0.8-5.2C27.3,3.9,27.7,3.6,28.1,3.6z M39.7,9.5h-9.5l0.3-2h4.3H35h4.3L39.7,9.5z M8.5,7.9c0-0.2,0.1-0.3,0.3-0.3H16
		c0.2,0,0.3,0.1,0.3,0.3v1.6H8.5V7.9L8.5,7.9z M49,48.8c-0.6,0.7-1.2,1.4-1.9,2c-3.2,2.9-7.4,4.6-12.1,4.6s-8.9-1.8-12.1-4.6
		c-0.7-0.6-1.3-1.3-1.9-2c-2.6-3.1-4.1-7.1-4.1-11.5c0-10,8.1-18.1,18.1-18.1s18.1,8.1,18.1,18.1C53.1,41.6,51.6,45.6,49,48.8z
		 M66.8,45.5c0,1.8-1.5,3.3-3.3,3.3h-12c2.2-3.2,3.6-7.2,3.6-11.5c0-11.1-9-20.1-20.1-20.1s-20.1,9-20.1,20.1
		c0,4.3,1.3,8.2,3.6,11.4h-12c-1.8,0-3.3-1.5-3.3-3.3V14.8c0-1.8,1.5-3.3,3.3-3.3h0.2h11.5h6.5h3.5h13.9h3.5h18.1
		c1.8,0,3.3,1.5,3.3,3.3L66.8,45.5L66.8,45.5z"/>
</g>
</svg>
