<?xml version="1.0" encoding="utf-8"?>
<!-- Generator: Adobe Illustrator 25.0.1, SVG Export Plug-In . SVG Version: 6.00 Build 0)  -->
<svg version="1.1" id="Layer_1" xmlns="http://www.w3.org/2000/svg" xmlns:xlink="http://www.w3.org/1999/xlink" x="0px" y="0px"
	 viewBox="0 0 48 56" style="enable-background:new 0 0 48 56;" xml:space="preserve">
<style type="text/css">
	.st0{fill:#31B6EC;}
</style>
<g>
	<path class="st0" d="M10,17c0,0.6,0.4,1,1,1c1.7,0,3,1.3,3,3c0,0.6,0.4,1,1,1s1-0.4,1-1c0-1.7,1.3-3,3-3c0.6,0,1-0.4,1-1
		s-0.4-1-1-1c-1.7,0-3-1.3-3-3c0-0.6-0.4-1-1-1s-1,0.4-1,1c0,1.7-1.3,3-3,3C10.4,16,10,16.4,10,17z"/>
	<path class="st0" d="M11,8C9.3,8,8,6.7,8,5c0-0.6-0.4-1-1-1S6,4.4,6,5c0,1.7-1.3,3-3,3C2.4,8,2,8.4,2,9s0.4,1,1,1c1.7,0,3,1.3,3,3
		c0,0.6,0.4,1,1,1s1-0.4,1-1c0-1.7,1.3-3,3-3c0.6,0,1-0.4,1-1S11.6,8,11,8z"/>
	<path class="st0" d="M0,28c0,1.1,0.9,2,2,2h36c1.1,0,2-0.9,2-2c0-1.1-0.9-2-2-2H2C0.9,26,0,26.9,0,28z"/>
	<rect x="6" y="46" class="st0" width="28" height="10"/>
	<rect x="6" y="32" class="st0" width="28" height="4"/>
	<rect x="6" y="38" class="st0" width="28" height="6"/>
	<path class="st0" d="M46.9,0c-0.3,0-0.6,0.1-0.8,0.3L32.4,14l1.6,1.6L47.7,1.9c0.4-0.4,0.4-1.1,0-1.6C47.5,0.1,47.2,0,46.9,0z"/>
	<rect x="28.7" y="16.4" transform="matrix(0.7071 -0.7071 0.7071 0.7071 -3.406 26.7068)" class="st0" width="3.7" height="2.2"/>
	<rect x="26" y="6" class="st0" width="2" height="2"/>
	<rect x="26" y="10" class="st0" width="2" height="2"/>
	<rect x="24" y="8" class="st0" width="2" height="2"/>
	<rect x="28" y="8" class="st0" width="2" height="2"/>
</g>
</svg>
