<svg width="566" height="309" viewBox="0 0 566 309" fill="none" xmlns="http://www.w3.org/2000/svg">
<g style="mix-blend-mode:darken">
<path d="M232.029 298.429C232.029 302.913 229.829 305.155 225.43 305.155H213.119C209.82 305.155 207.831 304.521 207.154 303.252C206.477 301.898 206.097 300.713 206.012 299.698C205.928 298.598 205.758 297.287 205.505 295.764C204.997 291.618 204.278 287.134 203.347 282.311C196.748 294.41 186.383 302.406 172.254 306.298C167.262 307.651 161.762 308.328 155.755 308.328C149.748 308.328 143.741 307.313 137.734 305.282C131.726 303.336 126.396 300.417 121.743 296.525C111.251 287.726 106.006 276.177 106.006 261.878C106.006 246.226 111.759 234.254 123.266 225.962C132.742 219.278 144.925 215.936 159.816 215.936C174.707 215.936 187.314 220.294 197.636 229.008C197.89 226.132 198.017 222.536 198.017 218.221C198.017 213.906 197.171 209.591 195.478 205.276C193.786 200.961 191.375 197.365 188.244 194.488C181.814 188.82 172.846 185.985 161.339 185.985C151.017 185.985 140.526 188.82 129.865 194.488C127.834 195.588 126.058 196.138 124.535 196.138C122.25 196.138 120.051 193.896 117.935 189.412C115.651 184.843 114.509 181.543 114.509 179.513C114.509 175.79 117.301 172.194 122.885 168.725C133.545 162.126 147.802 158.826 165.654 158.826C181.899 158.826 195.352 163.268 206.012 172.152C218.619 182.812 224.922 197.873 224.922 217.332C224.922 225.962 223.526 236.834 220.734 249.949C227.926 270.424 231.691 286.584 232.029 298.429ZM146.998 244.618C143.529 247.157 141.033 249.695 139.51 252.233C138.072 254.771 137.353 257.775 137.353 261.244C137.353 264.628 137.945 267.674 139.13 270.382C140.399 273.004 142.133 275.204 144.333 276.981C148.986 280.619 154.19 282.438 159.943 282.438C165.781 282.438 170.561 281.761 174.284 280.408C178.007 279.054 181.222 277.319 183.929 275.204C189.767 270.635 192.686 265.813 192.686 260.736C192.179 254.391 188.668 249.399 182.153 245.761C176.315 242.376 169.419 240.684 161.466 240.684C155.29 240.684 150.467 241.996 146.998 244.618ZM270.732 171.136C270.732 165.045 273.397 161.999 278.728 161.999H285.581C290.234 161.999 293.534 164.029 295.48 168.091C298.272 174.013 300.303 182.178 301.572 192.585C301.572 192.754 301.614 192.838 301.699 192.838C301.868 192.838 302.164 191.4 302.587 188.523C303.01 185.647 304.237 182.135 306.267 177.99C308.298 173.759 310.794 170.206 313.755 167.329C319.762 161.66 327.123 158.826 335.838 158.826C345.568 158.826 352.336 160.434 356.144 163.649C357.921 165.087 358.64 167.075 358.301 169.614L356.271 185.604C355.763 189.919 353.563 192.077 349.671 192.077C347.81 192.077 345.525 191.696 342.818 190.935C337.572 189.581 333.427 188.904 330.381 188.904C327.335 188.904 324.12 190.258 320.735 192.965C317.351 195.588 314.432 198.888 311.978 202.864C306.987 211.156 304.491 219.998 304.491 229.389V296.779C304.491 299.148 303.814 301.136 302.46 302.744C301.106 304.352 299.16 305.155 296.622 305.155H281.9C279.193 305.155 277.12 304.352 275.682 302.744C274.328 301.136 273.651 299.148 273.651 296.779V209.337C273.651 194.446 273.143 184.631 272.128 179.893C271.197 175.071 270.732 172.152 270.732 171.136ZM465.029 181.289C465.029 186.027 462.364 188.396 457.034 188.396H421.244V268.097C421.244 276.727 425.517 281.042 434.063 281.042C439.477 281.042 446.542 278.335 455.257 272.92C456.949 271.82 458.768 271.27 460.714 271.27C462.745 271.27 464.352 272.666 465.537 275.458L468.456 282.057C469.556 284.596 470.106 286.753 470.106 288.53C470.106 290.307 468.752 292.38 466.044 294.749C463.422 297.033 460.037 299.106 455.891 300.967C446.5 305.198 437.997 307.313 430.382 307.313C422.767 307.313 416.718 306.551 412.234 305.028C407.834 303.421 404.069 301.052 400.939 297.921C394.17 291.322 390.786 281.804 390.786 269.366V188.396H380.125C374.795 188.396 372.13 185.985 372.13 181.162V173.929C372.13 171.983 372.637 170.46 373.653 169.36C374.668 168.26 376.656 167.414 379.617 166.821L392.309 163.141L397.131 133.317C398.062 127.733 400.346 124.941 403.984 124.941H414.518C416.464 124.941 418.072 125.744 419.341 127.352C420.61 128.875 421.244 130.863 421.244 133.317V161.999H457.034C462.364 161.999 465.029 164.326 465.029 168.979V181.289ZM516.296 137.505C510.543 137.505 505.636 135.517 501.575 131.54C497.513 127.648 495.483 122.741 495.483 116.818C495.483 111.065 497.513 106.158 501.575 102.096C505.467 98.2045 510.374 96.2585 516.296 96.2585C525.349 96.2585 531.695 100.404 535.333 108.696C536.433 111.149 536.983 113.857 536.983 116.818C536.983 122.741 534.952 127.648 530.891 131.54C526.83 135.517 521.965 137.505 516.296 137.505ZM531.145 270.255C531.145 276.262 533.133 279.265 537.11 279.265C538.464 279.265 539.987 278.885 541.679 278.123C544.978 276.685 547.221 275.966 548.405 275.966C550.182 275.966 551.62 277.192 552.72 279.646L556.654 288.53C557.331 289.968 557.67 291.322 557.67 292.591C557.67 296.229 554.539 299.614 548.278 302.744C542.356 305.79 536.475 307.313 530.637 307.313C524.884 307.313 520.273 306.678 516.804 305.409C513.335 304.14 510.374 302.025 507.92 299.064C503.013 292.972 500.559 283.073 500.559 269.366V170.375C500.559 168.006 501.236 166.018 502.59 164.41C503.944 162.803 505.551 161.999 507.413 161.999H524.419C526.365 161.999 527.972 162.803 529.241 164.41C530.51 166.018 531.145 168.006 531.145 170.375V270.255Z" fill="#CD72B4"/>
</g>
<path d="M185.84 76.9425C185.84 112.421 155.861 141.284 119.013 141.284C87.9376 141.284 62.6551 116.942 62.6551 87.0217C62.6551 61.548 84.1788 40.8241 110.635 40.8241C118.632 40.8241 125.114 47.0659 125.114 54.7647C125.114 62.4635 118.632 68.7053 110.635 68.7053C100.147 68.7053 91.6133 76.9221 91.6133 87.0217C91.6133 101.568 103.904 113.402 119.013 113.402C139.893 113.402 156.88 97.0455 156.88 76.9425C156.88 49.8903 134.02 27.8815 105.924 27.8815C68.8082 27.8815 38.611 56.9556 38.611 92.6933V213.513C44.4722 217.752 48.2641 224.499 48.2641 232.101L41.5665 284.765C41.5672 297.598 37.4607 308 24.1325 308C10.8043 308 5.54148 297.598 5.54148 284.765L0.000255218 232.101C0.000255218 224.499 3.79217 217.751 9.65342 213.513V92.6926C9.65342 41.5815 52.8401 -0.000286818 105.925 -0.000286818C149.99 -0.000286818 185.84 34.5149 185.84 76.9425Z" fill="#CD72B4"/>
</svg>
