<?xml version="1.0" encoding="utf-8"?>
<!-- Generator: Adobe Illustrator 25.0.1, SVG Export Plug-In . SVG Version: 6.00 Build 0)  -->
<svg version="1.1" id="Layer_1" xmlns="http://www.w3.org/2000/svg" xmlns:xlink="http://www.w3.org/1999/xlink" x="0px" y="0px"
	 viewBox="0 0 62 63.3" style="enable-background:new 0 0 62 63.3;" xml:space="preserve">
<style type="text/css">
	.st0{fill:#31B6EC;}
</style>
<path class="st0" d="M15.3,6c-7,0-12.7,5.7-12.7,12.7H28C28,11.7,22.3,6,15.3,6L15.3,6z M5.9,17.2C5.9,17,6,16.6,6,16.4
	c0-0.2,0.1-0.4,0.1-0.5c1.1-4.4,5.1-7.4,9.6-7.4c0.6,0,1.1,0,1.7,0.1c-3.8,0.7-6.9,3.5-7.9,7.3h15.2c0,0.5,0,1,0,1.4
	C24.7,17.3,5.9,17.3,5.9,17.2z"/>
<path class="st0" d="M27.9,20.5H2.7c-0.8,0.1-1.4,0.7-1.3,1.5c0.1,0.7,0.6,1.2,1.3,1.3h3.7l-1.7,5.1h3l1.7-5.1h12l1.7,5.1h3
	l-1.7-5.1H28c0.8,0.1,1.5-0.5,1.5-1.3c0.1-0.8-0.5-1.5-1.3-1.5C28.1,20.5,28,20.5,27.9,20.5L27.9,20.5z"/>
<path class="st0" d="M17.8,1.1c0-1.4-4.9-1.4-4.9,0c0,0.8,0.4,1.6,1.2,2.1l-0.5,1.6c1.2-0.2,2.4-0.2,3.6,0l-0.5-1.6
	C17.3,2.8,17.8,2,17.8,1.1z"/>
<path class="st0" d="M46.7,6C39.7,6,34,11.7,34,18.6l0,0h25.4C59.4,11.7,53.7,6,46.7,6z M37.3,17.2c0-0.3,0.1-0.6,0.1-0.9
	c0-0.2,0.1-0.4,0.1-0.5c1.2-4.4,5.1-7.4,9.6-7.4c0.6,0,1.1,0.1,1.7,0.1C45,9.2,42,12.1,41,15.8h15.1c0,0.5,0,1,0,1.4
	C56.1,17.2,37.3,17.2,37.3,17.2z"/>
<path class="st0" d="M59.3,20.4H34.1c-0.8,0.1-1.4,0.7-1.3,1.5c0.1,0.7,0.6,1.2,1.3,1.3h3.7L36,28.4h3l1.7-5.1h12l1.7,5.1h3
	l-1.7-5.1h3.7c0.8,0.1,1.5-0.5,1.5-1.3c0.1-0.8-0.5-1.5-1.3-1.5C59.5,20.4,59.4,20.4,59.3,20.4L59.3,20.4z"/>
<path class="st0" d="M49.2,1c0-1.4-4.9-1.4-4.9,0c0,0.8,0.4,1.6,1.1,2.1l-0.5,1.6c1.2-0.2,2.4-0.2,3.6,0L48,3.1
	C48.7,2.8,49.1,2,49.2,1z"/>
<path class="st0" d="M60.2,30.9H1.8c-1,0-1.8,0.8-1.8,1.8l0,0v19.6c0,0.9,0.7,1.7,1.7,1.7c0.1,0,0.2,0,0.3,0
	c0.8-0.1,1.7-0.4,2.4-0.8c1.9-0.9,3.2-2.2,6.7-2.2c1,0,2.1,0.1,3.1,0.4c0.4,0.1,0.8,0.3,1.1,0.4V38.8h2.4v14.5c1.4,0.7,2.9,1,4.5,1
	h0.3V38.8H25v15.1c0.7-0.2,1.4-0.4,2-0.8c0.9-0.5,1.9-1,2.8-1.4V38.8h2.4v12.4c0.3,0,0.7,0,1.1,0c1.2,0,2.4,0.2,3.6,0.6H37v-13h2.5
	v14.2c1.5,0.8,3.1,1.2,4.8,1.2V38.8h2.4V54c1-0.2,1.9-0.6,2.8-1.1c1.8-1.2,3.9-1.8,6-1.8c1.4,0,2.7,0.2,4,0.8l0,0
	c0.9,0.4,1.9,0,2.3-0.8c0.1-0.2,0.2-0.5,0.2-0.7V32.8C62,31.8,61.2,30.9,60.2,30.9L60.2,30.9z"/>
<path class="st0" d="M5.5,55.5l-0.3,0.2v4.7c-0.1,1.4,1,2.7,2.5,2.8s2.7-1,2.8-2.5c0-0.1,0-0.2,0-0.3v-6.8c-1.3,0.1-2.5,0.5-3.6,1.2
	C6.3,55,5.9,55.3,5.5,55.5z"/>
<path class="st0" d="M51.6,54.6v5.8c-0.1,1.4,1,2.7,2.5,2.8s2.7-1,2.8-2.5c0-0.1,0-0.2,0-0.3v-6.7c-0.4-0.1-0.9-0.1-1.3-0.1
	C54.2,53.5,52.8,54,51.6,54.6z"/>
</svg>
