<?xml version="1.0" encoding="utf-8"?>
<!-- Generator: Adobe Illustrator 25.0.1, SVG Export Plug-In . SVG Version: 6.00 Build 0)  -->
<svg version="1.1" id="Layer_1" xmlns="http://www.w3.org/2000/svg" xmlns:xlink="http://www.w3.org/1999/xlink" x="0px" y="0px"
	 viewBox="0 0 64 80" style="enable-background:new 0 0 64 80;" xml:space="preserve">
<style type="text/css">
	.st0{fill:#31B6EC;}
	.st1{font-family:'HelveticaNeue-Bold';}
	.st2{font-size:2.8562px;}
</style>
<g>
	<path class="st0" d="M34,36h-4c-3.3,0-6,2.7-6,6v4c0,1.1,0.9,2,2,2h12c1.1,0,2-0.9,2-2v-4C40,38.7,37.3,36,34,36z M36,44h-8v-2
		c0-1.1,0.9-2,2-2h4c1.1,0,2,0.9,2,2V44z"/>
	<path class="st0" d="M37.6,54.8c-0.7-0.9-1.9-1.1-2.8-0.4L32,56.5l-2.8-2.1c-0.9-0.7-2.1-0.5-2.8,0.4c-0.7,0.9-0.5,2.1,0.4,2.8l0,0
		l1.9,1.4l-1.9,1.4c-0.9,0.7-1.1,1.9-0.4,2.8c0.7,0.9,1.9,1.1,2.8,0.4l0,0l2.8-2.1l2.8,2.1c0.9,0.7,2.1,0.5,2.8-0.4
		c0.7-0.9,0.5-2.1-0.4-2.8L35.3,59l1.9-1.4C38.1,56.9,38.3,55.7,37.6,54.8z"/>
	<path class="st0" d="M52,22h-4V10c0-5.5-4.5-10-10-10H26c-5.5,0-10,4.5-10,10v12h-4c-1.1,0-2,0.9-2,2s0.9,2,2,2h40c1.1,0,2-0.9,2-2
		S53.1,22,52,22z M26,4h12c3.3,0,6,2.7,6,6v4H20v-4C20,6.7,22.7,4,26,4z M20,22v-4h24v4H20z"/>
</g>
<text transform="matrix(1 0 0 1 1.5354 75.7349)" class="st1 st2">Created by Berkah Icon</text>
<text transform="matrix(1 0 0 1 1.5354 78.5913)" class="st1 st2">from the Noun Project</text>
</svg>
