<?xml version="1.0" encoding="utf-8"?>
<!-- Generator: Adobe Illustrator 25.0.1, SVG Export Plug-In . SVG Version: 6.00 Build 0)  -->
<svg version="1.1" id="Layer_1" xmlns="http://www.w3.org/2000/svg" xmlns:xlink="http://www.w3.org/1999/xlink" x="0px" y="0px"
	 viewBox="0 0 44 64" style="enable-background:new 0 0 44 64;" xml:space="preserve">
<style type="text/css">
	.st0{fill:#31B6EC;}
</style>
<g>
	<path class="st0" d="M24,36h-4c-3.3,0-6,2.7-6,6v4c0,1.1,0.9,2,2,2h12c1.1,0,2-0.9,2-2v-4C30,38.7,27.3,36,24,36z M26,44h-8v-2
		c0-1.1,0.9-2,2-2h4c1.1,0,2,0.9,2,2V44z"/>
	<path class="st0" d="M27.6,54.8c-0.7-0.9-1.9-1.1-2.8-0.4L22,56.5l-2.8-2.1c-0.9-0.7-2.1-0.5-2.8,0.4c-0.7,0.9-0.5,2.1,0.4,2.8l0,0
		l1.9,1.4l-1.9,1.4c-0.9,0.7-1.1,1.9-0.4,2.8c0.7,0.9,1.9,1.1,2.8,0.4l0,0l2.8-2.1l2.8,2.1c0.9,0.7,2.1,0.5,2.8-0.4s0.5-2.1-0.4-2.8
		L25.3,59l1.9-1.4C28.1,56.9,28.3,55.7,27.6,54.8z"/>
	<path class="st0" d="M42,22h-4V10c0-5.5-4.5-10-10-10H16C10.5,0,6,4.5,6,10v12H2c-1.1,0-2,0.9-2,2s0.9,2,2,2h40c1.1,0,2-0.9,2-2
		S43.1,22,42,22z M16,4h12c3.3,0,6,2.7,6,6v4H10v-4C10,6.7,12.7,4,16,4z M10,22v-4h24v4H10z"/>
</g>
</svg>
