<?xml version="1.0" encoding="utf-8"?>
<!-- Generator: Adobe Illustrator 25.0.1, SVG Export Plug-In . SVG Version: 6.00 Build 0)  -->
<svg version="1.1" id="Layer_1" xmlns="http://www.w3.org/2000/svg" xmlns:xlink="http://www.w3.org/1999/xlink" x="0px" y="0px"
	 viewBox="0 0 125.1 95.1" style="enable-background:new 0 0 125.1 95.1;" xml:space="preserve">
<style type="text/css">
	.st0{fill:#31B6EC;}
</style>
<path class="st0" d="M46.8,91c-7.7,0-9.9-2.8-11.6-4.9c-0.5-0.8-1.2-1.4-2-1.9c-0.8-0.3-1.1-1.2-0.8-2c0.3-0.8,1.2-1.1,2-0.8
	c1.3,0.6,2.4,1.6,3.1,2.7c1.5,1.8,3,3.8,9.2,3.8c0.8,0,1.5,0.7,1.5,1.5S47.6,91,46.8,91z"/>
<path class="st0" d="M93.1,20.4c-0.4,0-0.8-0.1-1-0.4c-1.9-1.8-3.9-3.4-6-4.8c-0.7-0.5-0.9-1.4-0.4-2.1s1.4-0.8,2-0.4
	c2.3,1.5,4.4,3.2,6.4,5.1c0.6,0.6,0.6,1.5,0,2.1C93.9,20.2,93.5,20.4,93.1,20.4L93.1,20.4z"/>
<path class="st0" d="M96.9,14.9c-0.4,0-0.8-0.1-1-0.4C94.5,13.2,93,12,91.5,11c-0.7-0.5-0.9-1.4-0.4-2.1s1.4-0.9,2.1-0.4
	c1.7,1.1,3.4,2.4,4.9,3.9c0.6,0.6,0.6,1.5,0,2.1C97.7,14.8,97.3,14.9,96.9,14.9L96.9,14.9z"/>
<path class="st0" d="M68.1,95.1c-0.8,0-1.5-0.7-1.5-1.5s0.6-1.4,1.3-1.5c2.5-0.3,5-0.9,7.5-1.6c0.8-0.3,1.6,0.2,1.9,0.9
	c0.3,0.8-0.2,1.6-0.9,1.9c0,0,0,0-0.1,0c-2.6,0.8-5.3,1.4-8,1.8C68.3,95.1,68.2,95.1,68.1,95.1z"/>
<path class="st0" d="M73.8,9.6c-0.2,0-0.5-0.1-0.7-0.2c-1.5-0.9-3.3-1.1-5-0.7c-2,0.5-4.1,0.3-6-0.7c-0.7-0.4-1-1.3-0.7-2
	c0.4-0.7,1.3-1,2-0.7l0,0c1.2,0.7,2.7,0.9,4,0.4c2.3-0.6,4.8-0.3,6.9,0.9c0.7,0.4,1,1.3,0.7,2C74.9,9.3,74.4,9.6,73.8,9.6L73.8,9.6z
	"/>
<path class="st0" d="M62.8,42.6c-4.3,0-7.7,3.5-7.7,7.8s3.5,7.7,7.8,7.7c4.3,0,7.7-3.5,7.7-7.7C70.6,46,67.1,42.6,62.8,42.6z"/>
<path class="st0" d="M114.5,48.1c-0.9-5.5-0.9-10.3-1.3-11.6c-0.1-0.9-1-1.6-1.9-1.5c-0.1,0-0.2,0-0.3,0.1c-3.3,1-1.7,8.8-1.2,12.6
	c0,0.1,0,0.1-0.1,0.1s-0.1,0-0.1-0.1c-2-4.6-4.2-10.3-4.7-15.7c-0.4-4-3.9-3-4.1-0.8c-0.3,3,1.5,13.9,2.9,18v0.1h-0.1
	c-2.8-4.7-6.5-12.6-9.2-17.6c-0.4-0.7-1.8-2.9-3.3-2.6c-1.3,0.3-2.2,1.4-2.1,2.7c0,1.2,6.9,14.4,9.3,20.4c0.1,0.2,0,0.3-0.1,0.4
	s-0.3,0-0.4-0.1c-3.2-3.4-6.9-10.8-9-15.5c-0.3-0.7-1.7-3-3.6-1.9c-1.3,0.8-1.2,2.8-1.1,3.6c0.7,3.6,5.3,13.5,8.5,17.9
	c2.4,3.3,1.5,5.6,1.4,5.9c-1.5,4.2-8.3,0.7-13.7,3.3c-3.5,1.7-1.9,5.8,1.6,5.3c6.3-0.8,17,2.1,20.3,3.6c5.5,2.6,6.7,8.9,6.9,12.6
	c0.1,1.6,1.4,2.9,3,2.9h10c1.7,0,3-1.3,3-3c0-0.1,0-0.1,0-0.2C124.4,73.8,115.7,55.6,114.5,48.1z"/>
<path class="st0" d="M10.6,19c0.9-5.5,0.9-10.3,1.3-11.6c0.1-0.9,1-1.6,1.9-1.5c0.1,0,0.2,0,0.3,0.1c3.3,1,1.7,8.8,1.2,12.6
	c0,0.1,0,0.1,0.1,0.1s0.1,0,0.1-0.1c2-4.6,4.2-10.3,4.7-15.7c0.4-4,3.9-3,4.1-0.8c0.3,3-1.5,13.9-2.9,18v0.1h0.1
	c2.8-4.7,6.5-12.6,9.2-17.6C31.1,1.9,32.5-0.3,34,0c1.3,0.3,2.1,1.4,2.1,2.7c0,1.2-6.9,14.4-9.3,20.4c-0.1,0.2,0,0.3,0.1,0.4
	c0.1,0.1,0.3,0,0.4-0.1c3.2-3.4,6.9-10.8,9-15.5c0.3-0.7,1.7-3,3.6-1.9c1.3,0.8,1.2,2.8,1.1,3.6c-0.7,3.6-5.3,13.5-8.5,17.9
	c-2.4,3.3-1.5,5.6-1.4,5.9c1.5,4.2,8.3,0.7,13.7,3.3c3.5,1.7,1.9,5.8-1.6,5.3c-6.4-0.8-17,2.1-20.3,3.6c-5.5,2.6-6.7,8.9-6.9,12.6
	c-0.1,1.6-1.4,2.9-3,2.9H3c-1.7,0-3-1.4-3-3V58C0.7,44.8,9.3,26.6,10.6,19z"/>
<path class="st0" d="M30.7,79.8c-0.1,0-0.2,0-0.3,0c-0.3-0.1-1.3-0.2-2.8-2.5c-0.4-0.7-0.2-1.6,0.5-2.1s1.6-0.2,2.1,0.5
	c0.3,0.5,0.6,0.9,1,1.3c0.8,0.3,1.2,1.1,0.9,1.9C31.9,79.4,31.4,79.8,30.7,79.8L30.7,79.8z"/>
<path class="st0" d="M78.9,63.1c2.3-1,4.8-1.5,7.3-1.4c0.5,0,2.3,0,2.7,0c0.5,0,1.1,0,1.6-0.1c0.4-0.1,0.6-0.4,0.6-0.7
	c0-0.9-0.4-1.8-1-2.5c-3.3-4.6-8.2-15-9-19.1c-0.4-2.2,0-5.3,2.5-6.7c0.7-0.4,1.5-0.6,2.3-0.7l0,0c-0.1-2.7,1.8-5.1,4.5-5.7
	c0.1,0,0.3,0,0.4-0.1C82.4,16.5,69.6,11.9,57,13.9c-0.2,0-2.2,0.4-2.4,0.5c-5.8,1.2-11.1,3.9-15.6,7.8c-2.8,2.6-5.3,7.9-4.5,10.5
	c0.1,0.2,0.3,0.3,0.4,0.3c2.7-0.1,5.3,0,8,0.2c1.1,0.2,2.2,0.6,3.2,1c2.6,1.1,4.1,3.8,3.5,6.6c-0.7,2.7-3.1,4.6-5.9,4.5
	c-0.3,0-2.2-0.2-2.9-0.2c-5.1,0.2-10.1,1.2-15,2.8c-0.1,0.8-0.1,1.7-0.1,2.5c0.1,20.5,16.7,37,37.2,36.9c10.6,0,20.7-4.6,27.7-12.6
	c-2.1-0.4-4.3-0.6-6.5-0.7c-0.8,0-2.6,0.2-2.9,0.2c-2.8,0.1-5.2-1.8-5.9-4.5C74.9,66.9,76.3,64.2,78.9,63.1z M62.8,63.5
	c-7.3,0-13.2-5.9-13.2-13.2s5.9-13.2,13.2-13.2c7.4,0,13.3,5.9,13.3,13.2C76.1,57.6,70.1,63.5,62.8,63.5L62.8,63.5z"/>
</svg>
