<?xml version="1.0" encoding="utf-8"?>
<!-- Generator: Adobe Illustrator 25.0.1, SVG Export Plug-In . SVG Version: 6.00 Build 0)  -->
<svg version="1.1" id="Layer_1" xmlns="http://www.w3.org/2000/svg" xmlns:xlink="http://www.w3.org/1999/xlink" x="0px" y="0px"
	 viewBox="0 0 492.2 491" style="enable-background:new 0 0 492.2 491;" xml:space="preserve">
<style type="text/css">
	.st0{fill:#31B6EC;}
</style>
<g>
	<path class="st0" d="M392,431h-78.2c-0.5,0-0.9-0.1-1.4-0.2c-9.9-2.9-19.4-6.9-28.4-11.9c-2.4-1.4-3.2-4.5-1.8-6.8
		c1.4-2.3,4.3-3.2,6.7-1.9c8.1,4.6,16.7,8.2,25.6,10.9h76.8c53.5-15.9,90.9-66.5,90.9-123.4c0.1-59.2-40.1-110.8-97.5-125.3l-62-0.4
		c-37.9,9.3-69.7,35.1-86.6,70.2c-1,2.6-3.9,3.8-6.5,2.8s-3.8-3.9-2.8-6.5c0.1-0.2,0.2-0.4,0.3-0.6c18.3-38.1,52.8-66,93.9-75.9
		c0.4-0.1,0.8-0.1,1.2-0.1l63.2,0.4c0.4,0,0.8,0.1,1.2,0.1c62.1,15.4,105.8,71.2,105.6,135.2c0,61.5-40.6,116.3-98.8,133.2
		C392.9,430.9,392.5,431,392,431z"/>
	<path class="st0" d="M294,150c-12.7,0-23-10.3-23-23s10.3-23,23-23s23,10.3,23,23l0,0C317,139.7,306.7,150,294,150z M294,114
		c-7.2,0-13,5.8-13,13c0,7.2,5.8,13,13,13s13-5.8,13-13C307,119.8,301.2,114,294,114L294,114z"/>
	<path class="st0" d="M219,196c-12.7,0-23-10.3-23-23s10.3-23,23-23s23,10.3,23,23l0,0C242,185.7,231.7,196,219,196z M219,160
		c-7.2,0-13,5.8-13,13s5.8,13,13,13s13-5.8,13-13S226.2,160,219,160L219,160z"/>
	<path class="st0" d="M28,207c-12.7,0-23-10.3-23-23s10.3-23,23-23s23,10.3,23,23l0,0C51,196.7,40.7,207,28,207z M28,171
		c-7.2,0-13,5.8-13,13s5.8,13,13,13s13-5.8,13-13S35.2,171,28,171L28,171z"/>
	<path class="st0" d="M111,210c-12.7,0-23-10.3-23-23s10.3-23,23-23s23,10.3,23,23l0,0C134,199.7,123.7,210,111,210z M111,174
		c-7.2,0-13,5.8-13,13s5.8,13,13,13s13-5.8,13-13S118.2,174,111,174L111,174z"/>
	<path class="st0" d="M453,173c-12.7,0-23-10.3-23-23s10.3-23,23-23s23,10.3,23,23l0,0C476,162.7,465.7,173,453,173z M453,137
		c-7.2,0-13,5.8-13,13s5.8,13,13,13s13-5.8,13-13S460.2,137,453,137L453,137z"/>
	<path class="st0" d="M204,491h-78.2c-0.5,0-0.9-0.1-1.4-0.2c-58.2-16.9-98.8-71.7-98.8-133.2C25.6,293,70.1,236.8,133,222
		c0.4-0.1,0.8-0.1,1.2-0.1l63.2,0.4c0.4,0,0.8,0.1,1.2,0.1c62.1,15.4,105.8,71.2,105.6,135.2c0,61.5-40.6,116.3-98.8,133.2
		C204.9,490.9,204.5,491,204,491z M126.5,481h76.8c53.5-15.9,90.9-66.5,90.9-123.4c0.1-59.2-40.1-110.8-97.5-125.3l-62-0.4
		c-27.9,6.7-52.7,22.5-70.7,44.8c-18.5,22.9-28.5,51.4-28.4,80.8C35.6,414.5,73,465.1,126.5,481L126.5,481z"/>
	<path class="st0" d="M86.9,146.1c-47.2,0-82.4-7.1-82.9-7.2c-2.7-0.6-4.5-3.2-3.9-5.9s3.2-4.5,5.9-3.9c0.6,0.1,64.2,13,134.5,3.6
		c41-5.4,76.1-17.3,104.6-35.1c35.3-22.2,60.3-53.9,74.2-94.2c1-2.6,3.9-3.9,6.5-2.9c2.4,0.9,3.7,3.6,3,6.1
		c-14.8,42.6-41.1,76.1-78.5,99.5c-29.7,18.6-66.3,30.9-108.7,36.5C123.4,145,105.2,146.2,86.9,146.1z"/>
	<path class="st0" d="M467.7,106.2c-93.9,0-158.1-25-196-46.7C227.9,34.6,208.8,9,208,8c-1.7-2.2-1.2-5.3,1-7s5.3-1.2,7,1
		c0.3,0.4,19.1,25.3,61.1,49.2C316.1,73.3,383.5,99,483.8,96c2.8-0.1,5.1,2.1,5.1,4.9s-2.1,5.1-4.9,5.1
		C478.6,106.2,473.1,106.2,467.7,106.2z"/>
	<path class="st0" d="M350,172c-2.8,0-5-2.2-5-5V88c0-2.8,2.2-5,5-5s5,2.2,5,5v79C355,169.8,352.8,172,350,172z"/>
	<path class="st0" d="M164,232c-2.8,0-5-2.2-5-5v-93c0-2.8,2.2-5,5-5s5,2.2,5,5v93C169,229.8,166.8,232,164,232z"/>
	<path class="st0" d="M352,416c-2.8,0-5-2.2-5-5v-1c0-2.8,2.2-5,5-5s5,2.2,5,5v1C357,413.8,354.8,416,352,416z M352,395
		c-2.8,0-5-2.2-5-5v-1c0-2.8,2.2-5,5-5s5,2.2,5,5v1C357,392.8,354.8,395,352,395z M352,374c-2.8,0-5-2.2-5-5v-1c0-2.8,2.2-5,5-5
		s5,2.2,5,5v1C357,371.8,354.8,374,352,374z M352,353c-2.8,0-5-2.2-5-5v-1c0-2.8,2.2-5,5-5s5,2.2,5,5v1C357,350.8,354.8,353,352,353
		z M352,332c-2.8,0-5-2.2-5-5v-1c0-2.8,2.2-5,5-5s5,2.2,5,5v1C357,329.8,354.8,332,352,332z M352,311c-2.8,0-5-2.2-5-5v-1
		c0-2.8,2.2-5,5-5s5,2.2,5,5v1C357,308.8,354.8,311,352,311z M352,290c-2.8,0-5-2.2-5-5v-1c0-2.8,2.2-5,5-5s5,2.2,5,5v1
		C357,287.8,354.8,290,352,290z M352,269c-2.8,0-5-2.2-5-5v-1c0-2.8,2.2-5,5-5s5,2.2,5,5v1C357,266.8,354.8,269,352,269z M352,248
		c-2.8,0-5-2.2-5-5v-1c0-2.8,2.2-5,5-5s5,2.2,5,5v1C357,245.8,354.8,248,352,248z M352,227c-2.8,0-5-2.2-5-5v-1c0-2.8,2.2-5,5-5
		s5,2.2,5,5v1C357,224.8,354.8,227,352,227z M352,206c-2.8,0-5-2.2-5-5v-1c0-2.8,2.2-5,5-5s5,2.2,5,5v1C357,203.8,354.8,206,352,206
		z M352,185c-2.8,0-5-2.2-5-5v-1c0-2.8,2.2-5,5-5s5,2.2,5,5v1C357,182.8,354.8,185,352,185z"/>
	<path class="st0" d="M308,421c-1.3,0-2.6-0.5-3.6-1.5l-0.7-0.8c-1.9-2-1.9-5.2,0.1-7.1s5.2-1.9,7.1,0.1c0.2,0.2,0.4,0.5,0.7,0.7
		c1.9,2,1.9,5.1-0.1,7.1C310.6,420.5,309.3,421.1,308,421L308,421z M294.9,404.7c-1.7,0-3.2-0.8-4.2-2.2c-0.2-0.3-0.4-0.6-0.6-0.9
		c-1.5-2.3-0.8-5.4,1.5-6.9s5.4-0.8,6.9,1.5l0.5,0.8c1.5,2.3,0.9,5.4-1.4,6.9C296.8,404.4,295.9,404.7,294.9,404.7L294.9,404.7z"/>
	<path class="st0" d="M274.3,257.9c-0.4,0-0.8-0.1-1.2-0.1c-2.7-0.7-4.3-3.4-3.6-6.1l0,0l0.2-1c0.6-2.7,3.3-4.4,6-3.8s4.4,3.3,3.8,6
		c0,0.1,0,0.1-0.1,0.2l-0.2,1C278.6,256.3,276.6,257.9,274.3,257.9z M280.6,237.9c-0.6,0-1.2-0.1-1.8-0.3c-2.6-1-3.8-3.9-2.8-6.5
		l0.4-1c0.9-2.6,3.8-4,6.4-3.1s4,3.8,3.1,6.4c-0.1,0.2-0.1,0.3-0.2,0.4l-0.4,0.9C284.6,236.6,282.7,237.9,280.6,237.9L280.6,237.9z
		 M289.6,218.9c-0.9,0-1.7-0.2-2.5-0.6c-2.4-1.4-3.3-4.4-1.9-6.8l0,0l0.5-0.9c1.4-2.4,4.5-3.2,6.8-1.8c2.4,1.4,3.2,4.4,1.8,6.8
		l-0.5,0.8C293.1,218,291.4,218.9,289.6,218.9L289.6,218.9z M301.3,201.5c-2.8,0-5-2.2-5-5c0-1.1,0.4-2.2,1.1-3.1l0.6-0.8
		c1.7-2.2,4.9-2.5,7-0.8c2.2,1.7,2.5,4.9,0.8,7l0,0l-0.6,0.8C304.3,200.8,302.9,201.5,301.3,201.5L301.3,201.5z M315.5,186.1
		c-2.8,0-5-2.2-5-5c0-1.4,0.6-2.7,1.6-3.7l0.8-0.7c2.1-1.8,5.3-1.6,7.1,0.5c1.7,2,1.6,5-0.3,6.9l-0.7,0.6
		C318,185.6,316.8,186.1,315.5,186.1L315.5,186.1z M332.3,173.4c-2.8,0-5-2.2-5-5c0-1.8,0.9-3.4,2.5-4.3c0.7-0.4,1.1-0.6,1.1-0.6
		c2.5-1.2,5.5-0.2,6.7,2.3c1.2,2.4,0.3,5.3-2.1,6.6c-0.1,0-0.3,0.2-0.7,0.4C334,173.1,333.2,173.4,332.3,173.4L332.3,173.4z"/>
	<path class="st0" d="M398.9,418.9c-2.8,0-5-2.2-5-5c0-1.3,0.5-2.5,1.3-3.4l0.6-0.7c1.9-2,5-2.2,7.1-0.3s2.2,5,0.3,7.1l0,0l-0.7,0.8
		C401.6,418.4,400.3,418.9,398.9,418.9z M411.6,402.2c-2.8,0-5-2.2-5-5c0-0.9,0.3-1.8,0.8-2.6l0.5-0.8c1.4-2.4,4.5-3.1,6.9-1.7
		s3.1,4.5,1.7,6.9c0,0,0,0.1-0.1,0.1l-0.5,0.9C414.9,401.3,413.3,402.2,411.6,402.2L411.6,402.2z M421.3,383.6c-2.8,0-5-2.2-5-5
		c0-0.7,0.1-1.4,0.4-2l0.4-0.9c1.1-2.5,4-3.7,6.5-2.7c2.5,1.1,3.7,4,2.7,6.5l-0.4,1C425.1,382.4,423.3,383.6,421.3,383.6
		L421.3,383.6z M428.3,363.9c-2.8,0-5-2.2-5-5c0-0.5,0.1-0.9,0.2-1.4l0.3-0.9c0.7-2.7,3.5-4.2,6.2-3.5s4.2,3.5,3.5,6.2l0,0l-0.3,1
		C432.5,362.4,430.5,363.9,428.3,363.9L428.3,363.9z M432.9,343.4c-0.3,0-0.6,0-0.8-0.1c-2.7-0.5-4.6-3-4.1-5.8l0.2-1
		c0.4-2.7,3-4.6,5.7-4.1s4.6,3,4.1,5.7l-0.2,1C437.4,341.6,435.3,343.4,432.9,343.4L432.9,343.4z M435.3,322.5h-0.4
		c-2.8-0.2-4.8-2.6-4.6-5.4l0.1-1c0.2-2.8,2.6-4.9,5.3-4.7c2.8,0.2,4.9,2.6,4.7,5.3l-0.1,1C440.2,320.5,438,322.6,435.3,322.5
		L435.3,322.5z M436,301.5c-2.7,0-5-2.2-5-4.9v-1c0-2.8,2.2-5,4.9-5.1h0.1c2.7,0,5,2.2,5,4.9v1C441,299.2,438.8,301.5,436,301.5
		C436.1,301.5,436.1,301.5,436,301.5L436,301.5z M434.7,280.6c-2.6,0-4.7-1.9-5-4.5l-0.1-1c-0.4-2.7,1.5-5.3,4.2-5.7
		c2.7-0.4,5.3,1.5,5.7,4.2c0,0.1,0,0.2,0,0.3l0.1,1c0.3,2.7-1.7,5.2-4.4,5.5l0,0C435.1,280.6,434.9,280.6,434.7,280.6L434.7,280.6z
		 M431.3,260c-2.3,0-4.4-1.6-4.9-3.9l-0.2-1c-0.6-2.7,1-5.4,3.7-6s5.4,1,6,3.7l0.2,1c0.6,2.7-1.1,5.4-3.7,6l0,0
		C432,260,431.6,260,431.3,260z M425.3,239.9c-2.1,0-4-1.3-4.7-3.3l-0.3-0.9c-1-2.6,0.3-5.5,2.8-6.5c2.6-1,5.5,0.3,6.5,2.8
		c0,0,0,0.1,0.1,0.1l0.4,1c0.9,2.6-0.4,5.5-3,6.4l0,0C426.5,239.8,425.9,239.9,425.3,239.9L425.3,239.9z M416.8,220.8
		c-1.8,0-3.5-1-4.4-2.6l-0.5-0.9c-1.4-2.4-0.6-5.5,1.8-6.8c2.4-1.4,5.5-0.6,6.8,1.8c0,0.1,0.1,0.1,0.1,0.2l0.5,0.9
		c1.3,2.4,0.4,5.5-2,6.8C418.4,220.5,417.6,220.7,416.8,220.8L416.8,220.8z M405.4,203c-1.6,0-3.1-0.7-4-2l-0.6-0.8
		c-1.8-2.1-1.5-5.3,0.7-7c2.1-1.8,5.3-1.5,7,0.7c0.1,0.1,0.2,0.2,0.2,0.3l0.6,0.8c1.7,2.2,1.2,5.3-1,7
		C407.6,202.6,406.5,203,405.4,203L405.4,203z M391.4,187.3c-1.3,0-2.5-0.5-3.4-1.4l-0.7-0.7c-2.1-1.8-2.2-5-0.4-7.1
		c1.8-2.1,5-2.2,7.1-0.4c0.1,0.1,0.1,0.1,0.2,0.2l0.7,0.7c2,1.9,2.1,5.1,0.2,7.1C394.1,186.8,392.8,187.3,391.4,187.3z M374.8,174.5
		c-0.9,0-1.8-0.2-2.5-0.7l-0.7-0.4c-2.4-1.3-3.4-4.3-2.1-6.8s4.3-3.4,6.8-2.1c0,0,0.4,0.2,1.1,0.6c2.4,1.4,3.2,4.5,1.8,6.8
		C378.3,173.5,376.6,174.5,374.8,174.5z"/>
	<path class="st0" d="M164,477c-2.8,0-5-2.2-5-5v-1c0-2.8,2.2-5,5-5s5,2.2,5,5v1C169,474.8,166.8,477,164,477z M164,456
		c-2.8,0-5-2.2-5-5v-1c0-2.8,2.2-5,5-5s5,2.2,5,5v1C169,453.8,166.8,456,164,456z M164,435c-2.8,0-5-2.2-5-5v-1c0-2.8,2.2-5,5-5
		s5,2.2,5,5v1C169,432.8,166.8,435,164,435z M164,414c-2.8,0-5-2.2-5-5v-1c0-2.8,2.2-5,5-5s5,2.2,5,5v1C169,411.8,166.8,414,164,414
		z M164,393c-2.8,0-5-2.2-5-5v-1c0-2.8,2.2-5,5-5s5,2.2,5,5v1C169,390.8,166.8,393,164,393z M164,372c-2.8,0-5-2.2-5-5v-1
		c0-2.8,2.2-5,5-5s5,2.2,5,5v1C169,369.8,166.8,372,164,372z M164,351c-2.8,0-5-2.2-5-5v-1c0-2.8,2.2-5,5-5s5,2.2,5,5v1
		C169,348.8,166.8,351,164,351z M164,330c-2.8,0-5-2.2-5-5v-1c0-2.8,2.2-5,5-5s5,2.2,5,5v1C169,327.8,166.8,330,164,330z M164,309
		c-2.8,0-5-2.2-5-5v-1c0-2.8,2.2-5,5-5s5,2.2,5,5v1C169,306.8,166.8,309,164,309z M164,288c-2.8,0-5-2.2-5-5v-1c0-2.8,2.2-5,5-5
		s5,2.2,5,5v1C169,285.8,166.8,288,164,288z M164,267c-2.8,0-5-2.2-5-5v-1c0-2.8,2.2-5,5-5s5,2.2,5,5v1C169,264.8,166.8,267,164,267
		z M164,246c-2.8,0-5-2.2-5-5v-1c0-2.8,2.2-5,5-5s5,2.2,5,5v1C169,243.8,166.8,246,164,246z"/>
	<path class="st0" d="M131,490.5c-1,0-1.9-0.3-2.7-0.8c-0.3-0.2-0.6-0.4-1-0.6c-2.3-1.5-2.9-4.6-1.4-6.9s4.6-2.9,6.9-1.4
		c0.1,0,0.1,0.1,0.2,0.1l0.7,0.5c2.3,1.5,3,4.6,1.4,6.9C134.2,489.6,132.6,490.4,131,490.5L131,490.5z M115.6,476.3
		c-1.5,0-2.8-0.6-3.8-1.8l-0.7-0.8c-1.8-2.1-1.5-5.3,0.6-7c2.1-1.8,5.3-1.5,7.1,0.6l0.6,0.7c1.8,2.1,1.6,5.3-0.5,7.1
		C118,475.9,116.8,476.3,115.6,476.3z M103.4,459.2c-1.8,0-3.4-0.9-4.3-2.5c-0.2-0.3-0.4-0.6-0.5-0.9c-1.5-2.3-0.8-5.4,1.5-6.9
		s5.4-0.8,6.9,1.5c0.1,0.1,0.1,0.2,0.2,0.4l0.5,0.8c1.4,2.4,0.6,5.4-1.7,6.8C105.2,459,104.3,459.2,103.4,459.2z M94.2,440.4
		c-2,0-3.9-1.2-4.6-3.1l-0.4-1c-1-2.6,0.2-5.5,2.8-6.5s5.5,0.2,6.5,2.8l0,0l0.3,0.9c1,2.6-0.2,5.5-2.8,6.5
		C95.5,440.2,94.8,440.4,94.2,440.4L94.2,440.4z M87.6,420.5c-2.3,0-4.3-1.5-4.8-3.7l-0.2-1c-0.8-2.6,0.7-5.4,3.4-6.2
		c2.6-0.8,5.4,0.7,6.2,3.4c0,0.1,0.1,0.2,0.1,0.4l0.2,0.9c0.7,2.7-0.9,5.4-3.6,6.1C88.5,420.4,88.1,420.4,87.6,420.5z M83.4,399.9
		c-2.5,0-4.6-1.8-4.9-4.2l-0.2-1c-0.4-2.7,1.5-5.3,4.2-5.7c2.7-0.4,5.3,1.5,5.7,4.2l0,0l0.1,1c0.4,2.7-1.5,5.3-4.2,5.7l0,0
		C83.9,399.9,83.7,399.9,83.4,399.9z M81.3,379c-2.7,0-4.8-2.1-5-4.7v-1c-0.1-2.8,2-5.1,4.7-5.3c2.8-0.1,5.1,2,5.3,4.7l0.1,1
		c0.2,2.8-1.9,5.1-4.7,5.3l0,0H81.3z M81,358h-0.2c-2.7-0.1-4.9-2.4-4.8-5.1v-1c0.1-2.8,2.4-4.9,5.2-4.8s4.9,2.4,4.8,5.2l0,0v1
		C85.9,355.9,83.7,358,81,358z M82.7,337.1c-0.2,0-0.5,0-0.7,0c-2.7-0.4-4.6-2.9-4.3-5.6l0,0l0.1-1c0.4-2.7,2.9-4.6,5.6-4.3
		c2.7,0.4,4.6,2.9,4.3,5.6l-0.1,1C87.3,335.3,85.1,337.2,82.7,337.1L82.7,337.1z M86.7,316.5c-2.8,0-5-2.2-5-5
		c0-0.4,0.1-0.8,0.2-1.3l0.2-1c0.7-2.7,3.4-4.3,6.1-3.6s4.3,3.4,3.6,6.1l-0.2,1C90.9,315,88.9,316.5,86.7,316.5L86.7,316.5z
		 M93.2,296.6c-2.8,0-5-2.2-5-5c0-0.6,0.1-1.3,0.4-1.9l0.4-1c1.1-2.6,4-3.8,6.5-2.7s3.8,4,2.7,6.5l0,0l-0.4,0.9
		C97.1,295.4,95.2,296.6,93.2,296.6L93.2,296.6z M102.4,277.7c-2.8,0-5-2.2-5-5c0-0.9,0.2-1.7,0.7-2.5l0.5-0.9
		c1.4-2.4,4.5-3.2,6.8-1.8c2.4,1.4,3.2,4.5,1.8,6.9l-0.5,0.8C105.9,276.8,104.2,277.8,102.4,277.7L102.4,277.7z M114.3,260.4
		c-2.8,0-5-2.2-5-5c0-1.1,0.4-2.2,1.1-3.1l0.7-0.8c1.7-2.1,4.9-2.5,7-0.7c2.1,1.7,2.5,4.9,0.7,7l0,0l-0.6,0.7
		C117.2,259.7,115.8,260.5,114.3,260.4L114.3,260.4z M128.6,245.1c-2.8,0-5-2.2-5-5c0-1.4,0.6-2.7,1.6-3.7l0.8-0.7
		c2.1-1.8,5.2-1.6,7.1,0.5c1.8,2,1.6,5.1-0.4,6.9l-0.7,0.6C131,244.6,129.8,245.1,128.6,245.1L128.6,245.1z M145.3,232.4
		c-2.8,0-5-2.2-5-5c0-1.8,0.9-3.4,2.5-4.3c0.7-0.4,1.1-0.6,1.1-0.6c2.5-1.2,5.5-0.2,6.7,2.3c1.1,2.4,0.3,5.2-2,6.5l-0.7,0.4
		C147.1,232.1,146.2,232.4,145.3,232.4L145.3,232.4z"/>
	<path class="st0" d="M197.8,490.5c-2.8,0-5-2.3-5-5c0-1.7,0.9-3.2,2.3-4.2l0.7-0.5c2.2-1.6,5.4-1.1,7,1.1s1.1,5.4-1.1,7
		c-0.1,0-0.1,0.1-0.2,0.1l-1,0.6C199.7,490.2,198.7,490.4,197.8,490.5z M213.2,476.3c-2.8,0-5-2.2-5-5c0-1.2,0.4-2.4,1.2-3.3
		l0.6-0.7c1.7-2.2,4.9-2.5,7-0.8c2.2,1.7,2.5,4.9,0.8,7c-0.1,0.1-0.1,0.1-0.2,0.2l-0.7,0.8C216.1,475.6,214.7,476.3,213.2,476.3
		L213.2,476.3z M225.4,459.2c-0.9,0-1.8-0.2-2.5-0.7c-2.4-1.4-3.2-4.5-1.8-6.8l0,0l0.5-0.8c1.4-2.4,4.5-3.2,6.8-1.8
		c2.4,1.4,3.2,4.4,1.8,6.8l-0.5,0.9C228.8,458.3,227.2,459.2,225.4,459.2z M234.6,440.4c-0.6,0-1.3-0.1-1.9-0.4
		c-2.6-1-3.8-3.9-2.8-6.5l0,0l0.4-0.9c1-2.6,3.9-3.8,6.5-2.8s3.8,3.9,2.8,6.5l0,0l-0.4,1C238.5,439.2,236.7,440.4,234.6,440.4
		L234.6,440.4z M241.2,420.5c-2.8,0-5-2.2-5-5c0-0.4,0.1-0.9,0.2-1.3l0.2-0.9c0.7-2.7,3.4-4.3,6.1-3.6c2.7,0.7,4.3,3.4,3.6,6.1
		l-0.3,1C245.5,418.9,243.5,420.4,241.2,420.5z M245.4,399.9c-0.3,0-0.5,0-0.8,0c-2.7-0.4-4.6-3-4.2-5.7l0,0l0.1-1
		c0.5-2.7,3.1-4.5,5.8-4c2.6,0.5,4.3,2.8,4.1,5.4l-0.1,1C250,398.1,247.9,399.9,245.4,399.9z M247.5,379h-0.3
		c-2.8-0.2-4.9-2.5-4.7-5.3v-1c0.1-2.8,2.5-4.9,5.3-4.7c2.8,0.1,4.9,2.5,4.7,5.3l-0.1,1C252.4,376.9,250.2,379,247.5,379z
		 M247.9,358c-2.7,0-4.9-2.1-5-4.9v-1c-0.1-2.8,2.1-5.1,4.8-5.2s5.1,2.1,5.2,4.8v1c0.1,2.8-2.1,5.1-4.8,5.2c0,0,0,0-0.1,0h-0.1V358z
		 M246.2,337.1c-2.5,0-4.7-1.8-5-4.3l-0.1-1c-0.5-2.7,1.4-5.3,4.1-5.8s5.3,1.4,5.8,4.1c0,0.1,0,0.2,0,0.3l0.1,1
		c0.4,2.7-1.5,5.3-4.3,5.6l0,0C246.6,337.1,246.4,337.1,246.2,337.1L246.2,337.1z M242.2,316.5c-2.3,0-4.3-1.5-4.8-3.7l-0.2-1
		c-0.7-2.7,0.9-5.4,3.6-6.1c2.7-0.7,5.4,0.9,6.1,3.6l0.3,1c0.7,2.7-0.9,5.4-3.6,6.1C243.1,316.5,242.6,316.5,242.2,316.5
		L242.2,316.5z M235.6,296.6c-2,0-3.9-1.2-4.6-3.1l-0.4-0.9c-1.1-2.5,0-5.5,2.5-6.6s5.5,0,6.6,2.5c0,0.1,0.1,0.2,0.1,0.3l0.4,1
		c1,2.6-0.2,5.5-2.8,6.5C236.9,296.5,236.3,296.6,235.6,296.6L235.6,296.6z M226.4,277.7c-1.8,0-3.4-0.9-4.3-2.5l-0.5-0.8
		c-1.4-2.4-0.6-5.4,1.8-6.9c2.4-1.4,5.4-0.6,6.9,1.8l0.5,0.9c1.4,2.4,0.6,5.4-1.8,6.8C228.2,277.5,227.3,277.7,226.4,277.7
		L226.4,277.7z M214.6,260.5c-1.5,0-3-0.7-3.9-1.9l-0.6-0.7c-1.7-2.1-1.4-5.3,0.7-7c2.1-1.7,5.3-1.4,7,0.7l0.7,0.8
		c1.7,2.2,1.4,5.3-0.8,7C216.8,260.1,215.7,260.4,214.6,260.5z M200.3,245.1c-1.3,0-2.5-0.5-3.4-1.3l-0.7-0.6
		c-2-1.9-2.1-5.1-0.2-7.1c1.8-2,4.9-2.1,6.9-0.4l0.8,0.7c2,1.9,2.2,5,0.3,7.1C203,244.5,201.7,245.1,200.3,245.1L200.3,245.1z
		 M183.6,232.4c-0.9,0-1.8-0.2-2.5-0.7c-0.4-0.2-0.7-0.4-0.7-0.4c-2.4-1.3-3.4-4.3-2.1-6.8s4.3-3.4,6.8-2.1c0,0,0.4,0.2,1.1,0.6
		c2.4,1.4,3.2,4.5,1.8,6.8C187,231.4,185.3,232.4,183.6,232.4L183.6,232.4z"/>
</g>
</svg>
