<?xml version="1.0" encoding="utf-8"?>
<!-- Generator: Adobe Illustrator 25.0.1, SVG Export Plug-In . SVG Version: 6.00 Build 0)  -->
<svg version="1.1" id="Layer_1" xmlns="http://www.w3.org/2000/svg" xmlns:xlink="http://www.w3.org/1999/xlink" x="0px" y="0px"
	 viewBox="0 0 95 118.8" style="enable-background:new 0 0 95 118.8;" xml:space="preserve">
<style type="text/css">
	.st0{fill:#31B6EC;stroke:#31B6EC;stroke-miterlimit:10;}
	.st1{font-family:'HelveticaNeue-Bold';}
	.st2{font-size:5px;}
</style>
<g>
	<path class="st0" d="M75.1,31.6h-7.2c-1.3,0-2.3,1-2.3,2.3v1.4c0,1.3,1,2.3,2.3,2.3h7.2c1.3,0,2.3-1,2.3-2.3V34
		C77.4,32.7,76.4,31.6,75.1,31.6z M75.4,35.4c0,0.2-0.1,0.3-0.3,0.3h-7.2c-0.2,0-0.3-0.1-0.3-0.3V34c0-0.2,0.1-0.3,0.3-0.3h7.2
		c0.2,0,0.3,0.1,0.3,0.3V35.4z"/>
	<path class="st0" d="M47.5,44.6c-0.6,0-1,0.5-1,1s0.5,1,1,1c4.7,0,8.4,3.8,8.4,8.4c0,0.6,0.5,1,1,1s1-0.5,1-1
		C58,49.3,53.3,44.6,47.5,44.6z"/>
	<path class="st0" d="M47.5,39.8c-8.4,0-15.2,6.8-15.2,15.2c0,4.7,2.1,8.9,5.5,11.7c1,0.8,2,1.5,3.1,2c2,1,4.3,1.5,6.7,1.5
		s4.7-0.6,6.7-1.5c1.1-0.6,2.2-1.2,3.1-2c3.3-2.8,5.5-7,5.5-11.7C62.8,46.6,55.9,39.8,47.5,39.8z M53.7,66.8c-1.8,1-3.9,1.5-6.2,1.5
		s-4.3-0.6-6.2-1.5c-4.2-2.2-7.1-6.6-7.1-11.7c0-7.3,5.9-13.2,13.2-13.2S60.8,47.7,60.8,55C60.7,60.1,57.9,64.5,53.7,66.8z"/>
	<path class="st0" d="M76.1,27.5H58.2h-0.2L57.2,22c-0.2-1.4-1.4-2.5-2.9-2.5h-6.7h-0.3h-6.7c-1.4,0-2.7,1-2.9,2.5l-0.8,5.5h-0.2h-6
		v-1.6c0-1.3-1-2.3-2.3-2.3h-7.2c-1.3,0-2.3,1-2.3,2.3v1.6h0c-2.9,0-5.3,2.4-5.3,5.3v30.7c0,2.9,2.4,5.3,5.3,5.3h13.6
		c3.7,4.1,9,6.7,15,6.7c5.9,0,11.3-2.6,15-6.7h13.6c2.9,0,5.3-2.4,5.3-5.3V32.8C81.4,29.9,79,27.5,76.1,27.5z M40.6,21.6h6.7h0.3
		h6.7c0.4,0,0.8,0.3,0.9,0.8l0.8,5.2h-1.6h-0.2l-0.4-2.4c-0.1-0.9-0.9-1.6-1.9-1.6h-4.4h-0.2H43c-0.9,0-1.7,0.7-1.9,1.6l-0.4,2.4
		h-0.2h-1.6l0.8-5.2C39.8,21.9,40.2,21.6,40.6,21.6z M52.2,27.5h-9.5l0.3-2h4.3h0.2h4.3L52.2,27.5z M21,25.9c0-0.2,0.1-0.3,0.3-0.3
		h7.2c0.2,0,0.3,0.1,0.3,0.3v1.6H21L21,25.9L21,25.9z M61.5,66.8c-0.6,0.7-1.2,1.4-1.9,2c-3.2,2.9-7.4,4.6-12.1,4.6
		s-8.9-1.8-12.1-4.6c-0.7-0.6-1.3-1.3-1.9-2c-2.6-3.1-4.1-7.1-4.1-11.5c0-10,8.1-18.1,18.1-18.1s18.1,8.1,18.1,18.1
		C65.6,59.6,64.1,63.6,61.5,66.8z M79.3,63.5c0,1.8-1.5,3.3-3.3,3.3H64c2.2-3.2,3.6-7.2,3.6-11.5c0-11.1-9-20.1-20.1-20.1
		s-20.1,9-20.1,20.1c0,4.3,1.3,8.2,3.6,11.4h-12c-1.8,0-3.3-1.5-3.3-3.3V32.8c0-1.8,1.5-3.3,3.3-3.3h0.2h11.5h6.5h3.5h13.9h3.5h18.1
		c1.8,0,3.3,1.5,3.3,3.3L79.3,63.5L79.3,63.5z"/>
</g>
<text transform="matrix(1 0 0 1 0 110)" class="st1 st2">Created by Ricardo Job-Reese</text>
<text transform="matrix(1 0 0 1 0 115)" class="st1 st2">from the Noun Project</text>
</svg>
