<?xml version="1.0" encoding="utf-8"?>
<!-- Generator: Adobe Illustrator 25.0.1, SVG Export Plug-In . SVG Version: 6.00 Build 0)  -->
<svg version="1.1" id="Layer_1" xmlns="http://www.w3.org/2000/svg" xmlns:xlink="http://www.w3.org/1999/xlink" x="0px" y="0px"
	 viewBox="0 0 100 125" style="enable-background:new 0 0 100 125;" xml:space="preserve">
<style type="text/css">
	.st0{fill:#31B6EC;}
	.st1{font-family:'HelveticaNeue-Bold';}
	.st2{font-size:5px;}
</style>
<path class="st0" d="M82.1,44.3c0.7,0,1.3,0,1.8-0.1c3.5-0.3,7-1.6,8.5-3.2c1.5-1.5,2-3.9,1.2-6.8c-0.7-2.7-2.4-5.5-4.9-8
	c-2.4-2.4-5.2-4.1-8-4.9c-2.8-0.8-5.3-0.3-6.8,1.2c-0.9,0.9-1.6,2.3-2.2,4l0,0l0,0C67.6,18.9,59.4,13.6,50,13.6s-17.6,5.2-21.9,12.9
	c-0.6-1.7-1.4-3.1-2.2-4c-1.5-1.5-3.9-2-6.8-1.2c-2.7,0.7-5.5,2.4-8,4.9s-4.1,5.2-4.9,8C5.6,37,6,39.5,7.5,41c1.6,1.6,5,2.9,8.5,3.2
	c0.5,0,1.1,0.1,1.8,0.1c0.5,0,1,0,1.6-0.1c-2.6,4-4.1,8.6-4.1,13.5c0,15.8,15.5,28.6,34.7,28.6c19.1,0,34.7-12.8,34.7-28.6
	c0-4.9-1.5-9.5-4.1-13.5l0,0l0,0C81.1,44.3,81.6,44.3,82.1,44.3z M78.7,41.8c-1.1-1.4-2.4-2.7-3.8-3.9c-0.1-1.9-0.3-3.8-0.8-5.6
	c0.2-0.5,0.5-0.9,0.7-1.1c1.3-1.3,4.5-0.4,6.9,2.1c2.4,2.4,3.4,5.6,2.1,6.9c-0.6,0.6-2.3,1.3-4.2,1.5C79.4,41.7,79.1,41.8,78.7,41.8
	z M20.4,41.7c-2-0.2-3.6-0.9-4.2-1.5c-0.6-0.6-0.7-1.6-0.4-2.9c0.4-1.4,1.2-2.8,2.5-4.1c1.7-1.7,3.7-2.7,5.3-2.7
	c0.7,0,1.2,0.2,1.6,0.6c0.2,0.2,0.5,0.6,0.7,1.1l0,0c-0.5,1.8-0.7,3.6-0.8,5.6c-1.4,1.2-2.7,2.5-3.8,3.9
	C20.9,41.8,20.6,41.7,20.4,41.7z M50,81.8c-15.1,0-27.4-10.1-27.4-22.6c0-5.9,2.8-11.3,7.3-15.3c-0.2-0.7-0.3-1.5-0.3-2.3
	c0-3.1,1.4-5.8,3.5-7.7c1.8-1.5,4.1-2.5,6.7-2.5c4,0,7.5,2.4,9.2,5.8l0,0c0.1,0.1,0.1,0.2,0.2,0.3c0.2,0.3,0.5,0.4,0.8,0.4
	c0.3,0,0.7-0.2,0.8-0.4c0-0.1,0.1-0.2,0.2-0.3c1.6-3.4,5.1-5.8,9.2-5.8c2.5,0,4.9,0.9,6.7,2.5c2.2,1.9,3.5,4.6,3.5,7.7
	c0,0.8-0.1,1.6-0.3,2.3c4.5,4,7.3,9.4,7.3,15.3C77.4,71.7,65.1,81.8,50,81.8z"/>
<path class="st0" d="M36.3,46.8c0.3,0.2,0.6,0.3,0.9,0.5c0.6,0.2,1.3,0.4,2,0.4c3.1,0,5.6-2.5,5.6-5.6c0-0.8-0.2-1.6-0.5-2.3
	c-0.1-0.2-0.2-0.5-0.4-0.7c-0.5-0.8-1.2-1.5-2-1.9c-0.8-0.5-1.8-0.7-2.8-0.7c-3.1,0-5.6,2.5-5.6,5.6c0,1,0.3,1.9,0.7,2.8
	C34.8,45.6,35.5,46.3,36.3,46.8z M36.8,39.1c0.1,0,0.2,0.1,0.3,0.2c0,0,0,0,0,0c0,0,0,0.1,0,0.1c0,0.2-0.2,0.3-0.3,0.3
	c0,0-0.1,0-0.1,0c0,0,0,0-0.1,0c-0.1-0.1-0.2-0.2-0.2-0.3C36.5,39.2,36.6,39.1,36.8,39.1z M37.1,40.1c0.1,0,0.2,0,0.3,0
	c0-0.3,0.3-0.6,0.7-0.6c0.2,0,0.5,0.1,0.6,0.3c0,0,0,0.1,0,0.1c0,0.1,0.1,0.2,0.1,0.3c0,0.4-0.3,0.7-0.7,0.7c0,0-0.1,0-0.1,0
	c0,0,0,0,0,0c0,0.5-0.4,0.8-0.8,0.8c-0.1,0-0.2,0-0.3-0.1c0,0-0.1,0-0.1-0.1c-0.2-0.1-0.4-0.4-0.4-0.7
	C36.3,40.5,36.7,40.1,37.1,40.1z"/>
<path class="st0" d="M57.8,46.8c0.3,0.2,0.6,0.3,0.9,0.5c0.6,0.2,1.3,0.4,2,0.4c3.1,0,5.6-2.5,5.6-5.6c0-0.8-0.2-1.6-0.5-2.3
	c-0.1-0.2-0.2-0.5-0.4-0.7c-0.5-0.8-1.2-1.5-2-1.9c-0.8-0.5-1.8-0.7-2.8-0.7c-3.1,0-5.6,2.5-5.6,5.6c0,1,0.3,1.9,0.7,2.8
	C56.4,45.6,57,46.3,57.8,46.8z M58.4,39.1c0.1,0,0.2,0.1,0.3,0.2c0,0,0,0,0,0c0,0,0,0.1,0,0.1c0,0.2-0.2,0.3-0.3,0.3
	c0,0-0.1,0-0.1,0c0,0,0,0-0.1,0c-0.1-0.1-0.2-0.2-0.2-0.3C58,39.2,58.2,39.1,58.4,39.1z M58.7,40.1c0.1,0,0.2,0,0.3,0
	c0-0.3,0.3-0.6,0.7-0.6c0.2,0,0.5,0.1,0.6,0.3c0,0,0,0.1,0,0.1c0,0.1,0.1,0.2,0.1,0.3c0,0.4-0.3,0.7-0.7,0.7c0,0-0.1,0-0.1,0
	c0,0,0,0,0,0c0,0.5-0.4,0.8-0.8,0.8c-0.1,0-0.2,0-0.3-0.1c0,0-0.1,0-0.1-0.1c-0.2-0.1-0.4-0.4-0.4-0.7
	C57.9,40.5,58.2,40.1,58.7,40.1z"/>
<path class="st0" d="M68.5,57.7c-0.4,0-0.7,0.3-0.7,0.7c0,9.8-8,17.8-17.8,17.8s-17.8-8-17.8-17.8c0-0.4-0.3-0.7-0.7-0.7
	s-0.7,0.3-0.7,0.7c0,2.6,0.5,5.1,1.5,7.5c1,2.3,2.3,4.3,4.1,6.1c1.8,1.8,3.8,3.1,6.1,4.1c2.4,1,4.9,1.5,7.5,1.5s5.1-0.5,7.5-1.5
	c2.3-1,4.3-2.3,6.1-4.1c1.8-1.8,3.1-3.8,4.1-6.1c1-2.4,1.5-4.9,1.5-7.5C69.1,58,68.8,57.7,68.5,57.7z"/>
<path class="st0" d="M47.2,56.3c0.1,0,0.2,0.1,0.3,0.1c0.7,0,1.5-0.9,1.7-1.4c0.1-0.3,0.1-0.7,0-1c-0.1-0.3-0.4-0.6-0.7-0.7
	c-0.7-0.3-1.5,0.1-1.7,0.7C46.4,54.6,46.4,56,47.2,56.3z"/>
<path class="st0" d="M51.6,56c0.4,0.3,0.7,0.4,0.9,0.4c0.1,0,0.2,0,0.3-0.1c0.3-0.1,0.6-0.4,0.6-1.1c0-0.4,0-0.9-0.1-1.2
	c-0.1-0.3-0.4-0.6-0.7-0.7s-0.7-0.1-1,0c-0.7,0.3-1,1.1-0.7,1.7C51,55.3,51.3,55.7,51.6,56z"/>
<text transform="matrix(1 0 0 1 0 115)" class="st1 st2">Created by Edit Pongrácz</text>
<text transform="matrix(1 0 0 1 0 120)" class="st1 st2">from the Noun Project</text>
</svg>
