<?xml version="1.0" encoding="utf-8"?>
<!-- Generator: Adobe Illustrator 25.0.1, SVG Export Plug-In . SVG Version: 6.00 Build 0)  -->
<svg version="1.1" id="Layer_1" xmlns="http://www.w3.org/2000/svg" xmlns:xlink="http://www.w3.org/1999/xlink" x="0px" y="0px"
	 viewBox="0 0 512 640" style="enable-background:new 0 0 512 640;" xml:space="preserve">
<style type="text/css">
	.st0{fill:#31B6EC;}
	.st1{font-family:'HelveticaNeue-Bold';}
	.st2{font-size:19.4927px;}
</style>
<g>
	<path class="st0" d="M256,233.6c42.7,0,77.5-34.8,77.5-77.5S298.7,78.6,256,78.6s-77.5,34.8-77.5,77.5
		C178.5,198.8,213.3,233.6,256,233.6z M256,98.6c31.7,0,57.5,25.8,57.5,57.5c0,31.7-25.8,57.5-57.5,57.5s-57.5-25.8-57.5-57.5
		C198.5,124.4,224.3,98.6,256,98.6z"/>
	<path class="st0" d="M428.4,309.2c-1.2-4.4-5.1-7.4-9.7-7.4h-72.6l15.3-16c58-60,58.6-157.5,1.5-217.2
		C335.5,39.8,298.8,24,259.5,24c0,0,0,0,0,0c-40,0-77.7,16.3-106,46c-57.9,60-58.6,157.5-1.5,217.2l13.9,14.6H93.3
		c-4.5,0-8.5,3-9.7,7.4L39.1,475.4c-0.8,3-0.2,6.2,1.7,8.7c1.9,2.5,4.8,3.9,7.9,3.9h414.5c3.1,0,6-1.4,7.9-3.9
		c1.9-2.5,2.5-5.7,1.7-8.7L428.4,309.2z M167.9,83.8C192.5,58.1,225,44,259.5,44c0,0,0,0,0,0c33.8,0,65.4,13.6,89,38.3
		c49.8,52.1,49.2,137.1-1.5,189.6L256,367l-89.6-93.6C116.6,221.3,117.3,136.3,167.9,83.8z M265.7,468v-28.8c0-5.5-4.5-10-10-10
		s-10,4.5-10,10V468H61.8L80,400h51.7c5.5,0,10-4.5,10-10s-4.5-10-10-10H85.4l15.6-58.2h84.1l63.7,66.6c1.9,2,4.5,3.1,7.2,3.1h0
		c2.7,0,5.3-1.1,7.2-3.1l63.8-66.6h84l15.6,58.2h-47.9c-5.5,0-10,4.5-10,10s4.5,10,10,10H432l18.2,68H265.7z"/>
</g>
<text transform="matrix(0.8623 0 0 1 9.9846 596.9573)" class="st1 st2">Created by Panda Icons</text>
<text transform="matrix(0.8623 0 0 1 9.9846 616.4495)" class="st1 st2">from the Noun Project</text>
</svg>
