<?xml version="1.0" encoding="utf-8"?>
<!-- Generator: Adobe Illustrator 25.0.1, SVG Export Plug-In . SVG Version: 6.00 Build 0)  -->
<svg version="1.1" id="Layer_1" xmlns="http://www.w3.org/2000/svg" xmlns:xlink="http://www.w3.org/1999/xlink" x="0px" y="0px"
	 viewBox="0 0 128 160" style="enable-background:new 0 0 128 160;" xml:space="preserve">
<style type="text/css">
	.st0{fill:#31B6EC;}
	.st1{font-family:'HelveticaNeue-Bold';}
	.st2{font-size:5px;}
</style>
<path class="st0" d="M47.7,109c-7.7,0-9.9-2.8-11.6-4.9c-0.5-0.8-1.2-1.4-2-1.9c-0.8-0.3-1.1-1.2-0.8-2c0.3-0.8,1.2-1.1,2-0.8
	c1.3,0.6,2.4,1.6,3.1,2.7c1.5,1.8,3,3.8,9.2,3.8c0.8,0,1.5,0.7,1.5,1.5S48.5,109,47.7,109z"/>
<path class="st0" d="M94,38.4c-0.4,0-0.8-0.1-1-0.4c-1.9-1.8-3.9-3.4-6-4.8c-0.7-0.5-0.9-1.4-0.4-2.1c0.5-0.7,1.4-0.8,2-0.4
	c2.3,1.5,4.4,3.2,6.4,5.1c0.6,0.6,0.6,1.5,0,2.1C94.8,38.2,94.4,38.4,94,38.4L94,38.4z"/>
<path class="st0" d="M97.8,32.9c-0.4,0-0.8-0.1-1-0.4c-1.4-1.3-2.9-2.5-4.4-3.5c-0.7-0.5-0.9-1.4-0.4-2.1c0.5-0.7,1.4-0.9,2.1-0.4
	c1.7,1.1,3.4,2.4,4.9,3.9c0.6,0.6,0.6,1.5,0,2.1C98.6,32.8,98.2,32.9,97.8,32.9L97.8,32.9z"/>
<path class="st0" d="M69,113.1c-0.8,0-1.5-0.7-1.5-1.5c0-0.8,0.6-1.4,1.3-1.5c2.5-0.3,5-0.9,7.5-1.6c0.8-0.3,1.6,0.2,1.9,0.9
	c0.3,0.8-0.2,1.6-0.9,1.9c0,0,0,0-0.1,0c-2.6,0.8-5.3,1.4-8,1.8C69.2,113.1,69.1,113.1,69,113.1z"/>
<path class="st0" d="M74.7,27.6c-0.2,0-0.5-0.1-0.7-0.2c-1.5-0.9-3.3-1.1-5-0.7c-2,0.5-4.1,0.3-6-0.7c-0.7-0.4-1-1.3-0.7-2
	c0.4-0.7,1.3-1,2-0.7l0,0c1.2,0.7,2.7,0.9,4,0.4c2.3-0.6,4.8-0.3,6.9,0.9c0.7,0.4,1,1.3,0.7,2C75.8,27.3,75.3,27.6,74.7,27.6
	L74.7,27.6z"/>
<path class="st0" d="M63.7,60.6c-4.3,0-7.7,3.5-7.7,7.8c0,4.3,3.5,7.7,7.8,7.7c4.3,0,7.7-3.5,7.7-7.7C71.5,64,68,60.6,63.7,60.6z"/>
<path class="st0" d="M115.4,66.1c-0.9-5.5-0.9-10.3-1.3-11.6c-0.1-0.9-1-1.6-1.9-1.5c-0.1,0-0.2,0-0.3,0.1c-3.3,1-1.7,8.8-1.2,12.6
	c0,0.1,0,0.1-0.1,0.1c-0.1,0-0.1,0-0.1-0.1c-2-4.6-4.2-10.3-4.7-15.7c-0.4-4-3.9-3-4.1-0.8c-0.3,3,1.5,13.9,2.9,18c0,0,0,0.1,0,0.1
	c0,0-0.1,0-0.1,0c-2.8-4.7-6.5-12.6-9.2-17.6c-0.4-0.7-1.8-2.9-3.3-2.6c-1.3,0.3-2.2,1.4-2.1,2.7c0,1.2,6.9,14.4,9.3,20.4
	c0.1,0.2,0,0.3-0.1,0.4c-0.1,0.1-0.3,0-0.4-0.1c-3.2-3.4-6.9-10.8-9-15.5c-0.3-0.7-1.7-3-3.6-1.9c-1.3,0.8-1.2,2.8-1.1,3.6
	c0.7,3.6,5.3,13.5,8.5,17.9c2.4,3.3,1.5,5.6,1.4,5.9c-1.5,4.2-8.3,0.7-13.7,3.3c-3.5,1.7-1.9,5.8,1.6,5.3c6.3-0.8,17,2.1,20.3,3.6
	c5.5,2.6,6.7,8.9,6.9,12.6c0.1,1.6,1.4,2.9,3,2.9h10c1.7,0,3-1.3,3-3c0-0.1,0-0.1,0-0.2C125.3,91.8,116.6,73.6,115.4,66.1z"/>
<path class="st0" d="M11.5,37c0.9-5.5,0.9-10.3,1.3-11.6c0.1-0.9,1-1.6,1.9-1.5c0.1,0,0.2,0,0.3,0.1c3.3,1,1.7,8.8,1.2,12.6
	c0,0.1,0,0.1,0.1,0.1c0.1,0,0.1,0,0.1-0.1c2-4.6,4.2-10.3,4.7-15.7c0.4-4,3.9-3,4.1-0.8c0.3,3-1.5,13.9-2.9,18c0,0,0,0.1,0,0.1
	c0,0,0.1,0,0.1,0c2.8-4.7,6.5-12.6,9.2-17.6c0.4-0.7,1.8-2.9,3.3-2.6c1.3,0.3,2.1,1.4,2.1,2.7c0,1.2-6.9,14.4-9.3,20.4
	c-0.1,0.2,0,0.3,0.1,0.4c0.1,0.1,0.3,0,0.4-0.1c3.2-3.4,6.9-10.8,9-15.5c0.3-0.7,1.7-3,3.6-1.9c1.3,0.8,1.2,2.8,1.1,3.6
	c-0.7,3.6-5.3,13.5-8.5,17.9c-2.4,3.3-1.5,5.6-1.4,5.9c1.5,4.2,8.3,0.7,13.7,3.3c3.5,1.7,1.9,5.8-1.6,5.3c-6.4-0.8-17,2.1-20.3,3.6
	c-5.5,2.6-6.7,8.9-6.9,12.6c-0.1,1.6-1.4,2.9-3,2.9h-10c-1.7,0-3-1.4-3-3c0,0,0-0.1,0-0.1C1.6,62.8,10.2,44.6,11.5,37z"/>
<path class="st0" d="M31.6,97.8c-0.1,0-0.2,0-0.3,0c-0.3-0.1-1.3-0.2-2.8-2.5c-0.4-0.7-0.2-1.6,0.5-2.1s1.6-0.2,2.1,0.5
	c0.3,0.5,0.6,0.9,1,1.3c0.8,0.3,1.2,1.1,0.9,1.9C32.8,97.4,32.3,97.8,31.6,97.8L31.6,97.8z"/>
<path class="st0" d="M79.8,81.1c2.3-1,4.8-1.5,7.3-1.4c0.5,0,2.3,0,2.7,0c0.5,0,1.1,0,1.6-0.1c0.4-0.1,0.6-0.4,0.6-0.7
	C92,78,91.6,77.1,91,76.4c-3.3-4.6-8.2-15-9-19.1c-0.4-2.2,0-5.3,2.5-6.7c0.7-0.4,1.5-0.6,2.3-0.7v0c-0.1-2.7,1.8-5.1,4.5-5.7
	c0.1,0,0.3,0,0.4-0.1c-8.4-9.6-21.2-14.2-33.8-12.2c-0.2,0-2.2,0.4-2.4,0.5c-5.8,1.2-11.1,3.9-15.6,7.8c-2.8,2.6-5.3,7.9-4.5,10.5
	c0.1,0.2,0.3,0.3,0.4,0.3c2.7-0.1,5.3,0,8,0.2c1.1,0.2,2.2,0.6,3.2,1c2.6,1.1,4.1,3.8,3.5,6.6c-0.7,2.7-3.1,4.6-5.9,4.5
	c-0.3,0-2.2-0.2-2.9-0.2c-5.1,0.2-10.1,1.2-15,2.8c-0.1,0.8-0.1,1.7-0.1,2.5c0.1,20.5,16.7,37,37.2,36.9c10.6,0,20.7-4.6,27.7-12.6
	c-2.1-0.4-4.3-0.6-6.5-0.7c-0.8,0-2.6,0.2-2.9,0.2c-2.8,0.1-5.2-1.8-5.9-4.5C75.8,84.9,77.2,82.2,79.8,81.1z M63.7,81.5
	c-7.3,0-13.2-5.9-13.2-13.2c0-7.3,5.9-13.2,13.2-13.2C71.1,55.1,77,61,77,68.3C77,75.6,71,81.5,63.7,81.5L63.7,81.5z"/>
<text transform="matrix(1 0 0 1 6.1304 143)" class="st1 st2">Created by Victoruler</text>
<text transform="matrix(1 0 0 1 6.3203 148)" class="st1 st2">from the Noun Project</text>
</svg>
