<?xml version="1.0" encoding="utf-8"?>
<!-- Generator: Adobe Illustrator 25.0.1, SVG Export Plug-In . SVG Version: 6.00 Build 0)  -->
<svg version="1.1" id="Layer_1" xmlns="http://www.w3.org/2000/svg" xmlns:xlink="http://www.w3.org/1999/xlink" x="0px" y="0px"
	 viewBox="0 0 512 640" style="enable-background:new 0 0 512 640;" xml:space="preserve">
<style type="text/css">
	.st0{fill:#31B6EC;}
	.st1{font-family:'HelveticaNeue-Bold';}
	.st2{font-size:17.95px;}
</style>
<g>
	<path class="st0" d="M404,441h-78.2c-0.5,0-0.9-0.1-1.4-0.2c-9.9-2.9-19.4-6.9-28.4-11.9c-2.4-1.4-3.2-4.5-1.8-6.8
		c1.4-2.3,4.3-3.2,6.7-1.9c8.1,4.6,16.7,8.2,25.6,10.9h76.8c53.5-15.9,90.9-66.5,90.9-123.4c0.1-59.2-40.1-110.8-97.5-125.3l-62-0.4
		c-37.9,9.3-69.7,35.1-86.6,70.2c-1,2.6-3.9,3.8-6.5,2.8s-3.8-3.9-2.8-6.5c0.1-0.2,0.2-0.4,0.3-0.6c18.3-38.1,52.8-66,93.9-75.9
		c0.4-0.1,0.8-0.1,1.2-0.1l63.2,0.4c0.4,0,0.8,0.1,1.2,0.1c62.1,15.4,105.8,71.2,105.6,135.2c0,61.5-40.6,116.3-98.8,133.2
		C404.9,440.9,404.5,441,404,441z"/>
	<path class="st0" d="M306,160c-12.7,0-23-10.3-23-23s10.3-23,23-23s23,10.3,23,23l0,0C329,149.7,318.7,160,306,160z M306,124
		c-7.2,0-13,5.8-13,13s5.8,13,13,13s13-5.8,13-13S313.2,124,306,124L306,124z"/>
	<path class="st0" d="M231,206c-12.7,0-23-10.3-23-23s10.3-23,23-23s23,10.3,23,23l0,0C254,195.7,243.7,206,231,206z M231,170
		c-7.2,0-13,5.8-13,13s5.8,13,13,13s13-5.8,13-13S238.2,170,231,170L231,170z"/>
	<path class="st0" d="M40,217c-12.7,0-23-10.3-23-23s10.3-23,23-23s23,10.3,23,23l0,0C63,206.7,52.7,217,40,217z M40,181
		c-7.2,0-13,5.8-13,13s5.8,13,13,13s13-5.8,13-13S47.2,181,40,181L40,181z"/>
	<path class="st0" d="M123,220c-12.7,0-23-10.3-23-23s10.3-23,23-23s23,10.3,23,23l0,0C146,209.7,135.7,220,123,220z M123,184
		c-7.2,0-13,5.8-13,13s5.8,13,13,13s13-5.8,13-13S130.2,184,123,184L123,184z"/>
	<path class="st0" d="M465,183c-12.7,0-23-10.3-23-23s10.3-23,23-23s23,10.3,23,23l0,0C488,172.7,477.7,183,465,183z M465,147
		c-7.2,0-13,5.8-13,13s5.8,13,13,13s13-5.8,13-13S472.2,147,465,147L465,147z"/>
	<path class="st0" d="M216,501h-78.2c-0.5,0-0.9-0.1-1.4-0.2c-58.2-16.9-98.8-71.7-98.8-133.2c0-64.6,44.5-120.8,107.4-135.6
		c0.4-0.1,0.8-0.1,1.2-0.1l63.2,0.4c0.4,0,0.8,0.1,1.2,0.1c62.1,15.4,105.8,71.2,105.6,135.2c0,61.5-40.6,116.3-98.8,133.2
		C216.9,500.9,216.5,501,216,501z M138.5,491h76.8c53.5-15.9,90.9-66.5,90.9-123.4c0.1-59.2-40.1-110.8-97.5-125.3l-62-0.4
		c-27.9,6.7-52.7,22.5-70.7,44.8c-18.5,22.9-28.5,51.4-28.4,80.8C47.6,424.5,85,475.1,138.5,491L138.5,491z"/>
	<path class="st0" d="M98.9,156.1c-47.2,0-82.4-7.1-82.9-7.2c-2.7-0.6-4.5-3.2-3.9-5.9c0.6-2.7,3.2-4.5,5.9-3.9
		c0.6,0.1,64.2,13,134.5,3.6c41-5.4,76.1-17.3,104.6-35.1c35.3-22.2,60.3-53.9,74.2-94.2c1-2.6,3.9-3.9,6.5-2.9
		c2.4,0.9,3.7,3.6,3,6.1c-14.8,42.6-41.1,76.1-78.5,99.5c-29.7,18.6-66.3,30.9-108.7,36.5C135.4,155,117.2,156.2,98.9,156.1z"/>
	<path class="st0" d="M479.7,116.2c-93.9,0-158.1-25-196-46.7C239.9,44.6,220.8,19,220,18c-1.7-2.2-1.2-5.3,1-7s5.3-1.2,7,1
		c0.3,0.4,19.1,25.3,61.1,49.2c39,22.1,106.4,47.8,206.7,44.8c2.8-0.1,5.1,2.1,5.1,4.9s-2.1,5.1-4.9,5.1
		C490.6,116.2,485.1,116.2,479.7,116.2z"/>
	<path class="st0" d="M362,182c-2.8,0-5-2.2-5-5V98c0-2.8,2.2-5,5-5s5,2.2,5,5v79C367,179.8,364.8,182,362,182z"/>
	<path class="st0" d="M176,242c-2.8,0-5-2.2-5-5v-93c0-2.8,2.2-5,5-5s5,2.2,5,5v93C181,239.8,178.8,242,176,242z"/>
	<path class="st0" d="M364,426c-2.8,0-5-2.2-5-5v-1c0-2.8,2.2-5,5-5s5,2.2,5,5v1C369,423.8,366.8,426,364,426z M364,405
		c-2.8,0-5-2.2-5-5v-1c0-2.8,2.2-5,5-5s5,2.2,5,5v1C369,402.8,366.8,405,364,405z M364,384c-2.8,0-5-2.2-5-5v-1c0-2.8,2.2-5,5-5
		s5,2.2,5,5v1C369,381.8,366.8,384,364,384z M364,363c-2.8,0-5-2.2-5-5v-1c0-2.8,2.2-5,5-5s5,2.2,5,5v1C369,360.8,366.8,363,364,363
		z M364,342c-2.8,0-5-2.2-5-5v-1c0-2.8,2.2-5,5-5s5,2.2,5,5v1C369,339.8,366.8,342,364,342z M364,321c-2.8,0-5-2.2-5-5v-1
		c0-2.8,2.2-5,5-5s5,2.2,5,5v1C369,318.8,366.8,321,364,321z M364,300c-2.8,0-5-2.2-5-5v-1c0-2.8,2.2-5,5-5s5,2.2,5,5v1
		C369,297.8,366.8,300,364,300z M364,279c-2.8,0-5-2.2-5-5v-1c0-2.8,2.2-5,5-5s5,2.2,5,5v1C369,276.8,366.8,279,364,279z M364,258
		c-2.8,0-5-2.2-5-5v-1c0-2.8,2.2-5,5-5s5,2.2,5,5v1C369,255.8,366.8,258,364,258z M364,237c-2.8,0-5-2.2-5-5v-1c0-2.8,2.2-5,5-5
		s5,2.2,5,5v1C369,234.8,366.8,237,364,237z M364,216c-2.8,0-5-2.2-5-5v-1c0-2.8,2.2-5,5-5s5,2.2,5,5v1C369,213.8,366.8,216,364,216
		z M364,195c-2.8,0-5-2.2-5-5v-1c0-2.8,2.2-5,5-5s5,2.2,5,5v1C369,192.8,366.8,195,364,195z"/>
	<path class="st0" d="M320,431c-1.3,0-2.6-0.5-3.6-1.5l-0.7-0.8c-1.9-2-1.9-5.2,0.1-7.1c2-1.9,5.2-1.9,7.1,0.1
		c0.2,0.2,0.4,0.5,0.7,0.7c1.9,2,1.9,5.1-0.1,7.1C322.6,430.5,321.3,431.1,320,431L320,431z M306.9,414.7c-1.7,0-3.2-0.8-4.2-2.2
		c-0.2-0.3-0.4-0.6-0.6-0.9c-1.5-2.3-0.8-5.4,1.5-6.9s5.4-0.8,6.9,1.5l0.5,0.8c1.5,2.3,0.9,5.4-1.4,6.9
		C308.8,414.4,307.9,414.7,306.9,414.7L306.9,414.7z"/>
	<path class="st0" d="M286.3,267.9c-0.4,0-0.8-0.1-1.2-0.1c-2.7-0.7-4.3-3.4-3.6-6.1c0,0,0,0,0,0l0.2-1c0.6-2.7,3.3-4.4,6-3.8
		c2.7,0.6,4.4,3.3,3.8,6c0,0.1,0,0.1-0.1,0.2l-0.2,1C290.6,266.3,288.6,267.9,286.3,267.9z M292.6,247.9c-0.6,0-1.2-0.1-1.8-0.3
		c-2.6-1-3.8-3.9-2.8-6.5l0.4-1c0.9-2.6,3.8-4,6.4-3.1s4,3.8,3.1,6.4c-0.1,0.2-0.1,0.3-0.2,0.4l-0.4,0.9
		C296.6,246.6,294.7,247.9,292.6,247.9L292.6,247.9z M301.6,228.9c-0.9,0-1.7-0.2-2.5-0.6c-2.4-1.4-3.3-4.4-1.9-6.8c0,0,0,0,0,0
		l0.5-0.9c1.4-2.4,4.5-3.2,6.8-1.8c2.4,1.4,3.2,4.4,1.8,6.8l-0.5,0.8C305.1,228,303.4,228.9,301.6,228.9L301.6,228.9z M313.3,211.5
		c-2.8,0-5-2.2-5-5c0-1.1,0.4-2.2,1.1-3.1l0.6-0.8c1.7-2.2,4.9-2.5,7-0.8c2.2,1.7,2.5,4.9,0.8,7l0,0l-0.6,0.8
		C316.3,210.8,314.9,211.5,313.3,211.5L313.3,211.5z M327.5,196.1c-2.8,0-5-2.2-5-5c0-1.4,0.6-2.7,1.6-3.7l0.8-0.7
		c2.1-1.8,5.3-1.6,7.1,0.5c1.7,2,1.6,5-0.3,6.9l-0.7,0.6C330,195.6,328.8,196.1,327.5,196.1L327.5,196.1z M344.3,183.4
		c-2.8,0-5-2.2-5-5c0-1.8,0.9-3.4,2.5-4.3c0.7-0.4,1.1-0.6,1.1-0.6c2.5-1.2,5.5-0.2,6.7,2.3c1.2,2.4,0.3,5.3-2.1,6.6
		c-0.1,0-0.3,0.2-0.7,0.4C346,183.1,345.2,183.4,344.3,183.4L344.3,183.4z"/>
	<path class="st0" d="M410.9,428.9c-2.8,0-5-2.2-5-5c0-1.3,0.5-2.5,1.3-3.4l0.6-0.7c1.9-2,5-2.2,7.1-0.3s2.2,5,0.3,7.1l0,0l-0.7,0.8
		C413.6,428.4,412.3,428.9,410.9,428.9z M423.6,412.2c-2.8,0-5-2.2-5-5c0-0.9,0.3-1.8,0.8-2.6l0.5-0.8c1.4-2.4,4.5-3.1,6.9-1.7
		c2.4,1.4,3.1,4.5,1.7,6.9c0,0,0,0.1-0.1,0.1l-0.5,0.9C426.9,411.3,425.3,412.2,423.6,412.2L423.6,412.2z M433.3,393.6
		c-2.8,0-5-2.2-5-5c0-0.7,0.1-1.4,0.4-2l0.4-0.9c1.1-2.5,4-3.7,6.5-2.7c2.5,1.1,3.7,4,2.7,6.5l-0.4,1
		C437.1,392.4,435.3,393.6,433.3,393.6L433.3,393.6z M440.3,373.9c-2.8,0-5-2.2-5-5c0-0.5,0.1-0.9,0.2-1.4l0.3-0.9
		c0.7-2.7,3.5-4.2,6.2-3.5s4.2,3.5,3.5,6.2l0,0l-0.3,1C444.5,372.4,442.5,373.9,440.3,373.9L440.3,373.9z M444.9,353.4
		c-0.3,0-0.6,0-0.8-0.1c-2.7-0.5-4.6-3-4.1-5.8l0.2-1c0.4-2.7,3-4.6,5.7-4.1s4.6,3,4.1,5.7l-0.2,1
		C449.4,351.6,447.3,353.4,444.9,353.4L444.9,353.4z M447.3,332.5h-0.4c-2.8-0.2-4.8-2.6-4.6-5.4l0.1-1c0.2-2.8,2.6-4.9,5.3-4.7
		c2.8,0.2,4.9,2.6,4.7,5.3l-0.1,1C452.2,330.5,450,332.6,447.3,332.5L447.3,332.5z M448,311.5c-2.7,0-5-2.2-5-4.9v-1
		c0-2.8,2.2-5,4.9-5.1h0.1c2.7,0,5,2.2,5,4.9v1C453,309.2,450.8,311.5,448,311.5C448.1,311.5,448.1,311.5,448,311.5L448,311.5z
		 M446.7,290.6c-2.6,0-4.7-1.9-5-4.5l-0.1-1c-0.4-2.7,1.5-5.3,4.2-5.7c2.7-0.4,5.3,1.5,5.7,4.2c0,0.1,0,0.2,0,0.3l0.1,1
		c0.3,2.7-1.7,5.2-4.4,5.5c0,0,0,0,0,0C447.1,290.6,446.9,290.6,446.7,290.6L446.7,290.6z M443.3,270c-2.3,0-4.4-1.6-4.9-3.9l-0.2-1
		c-0.6-2.7,1-5.4,3.7-6c2.7-0.6,5.4,1,6,3.7l0.2,1c0.6,2.7-1.1,5.4-3.7,6c0,0,0,0,0,0C444,270,443.6,270,443.3,270z M437.3,249.9
		c-2.1,0-4-1.3-4.7-3.3l-0.3-0.9c-1-2.6,0.3-5.5,2.8-6.5c2.6-1,5.5,0.3,6.5,2.8c0,0,0,0.1,0.1,0.1l0.4,1c0.9,2.6-0.4,5.5-3,6.4
		c0,0,0,0,0,0C438.5,249.8,437.9,249.9,437.3,249.9L437.3,249.9z M428.8,230.8c-1.8,0-3.5-1-4.4-2.6l-0.5-0.9
		c-1.4-2.4-0.6-5.5,1.8-6.8c2.4-1.4,5.5-0.6,6.8,1.8c0,0.1,0.1,0.1,0.1,0.2l0.5,0.9c1.3,2.4,0.4,5.5-2,6.8
		C430.4,230.5,429.6,230.7,428.8,230.8L428.8,230.8z M417.4,213c-1.6,0-3.1-0.7-4-2l-0.6-0.8c-1.8-2.1-1.5-5.3,0.7-7
		c2.1-1.8,5.3-1.5,7,0.7c0.1,0.1,0.2,0.2,0.2,0.3l0.6,0.8c1.7,2.2,1.2,5.3-1,7C419.6,212.6,418.5,213,417.4,213L417.4,213z
		 M403.4,197.3c-1.3,0-2.5-0.5-3.4-1.4l-0.7-0.7c-2.1-1.8-2.2-5-0.4-7.1c1.8-2.1,5-2.2,7.1-0.4c0.1,0.1,0.1,0.1,0.2,0.2l0.7,0.7
		c2,1.9,2.1,5.1,0.2,7.1C406.1,196.8,404.8,197.3,403.4,197.3z M386.8,184.5c-0.9,0-1.8-0.2-2.5-0.7l-0.7-0.4
		c-2.4-1.3-3.4-4.3-2.1-6.8s4.3-3.4,6.8-2.1c0,0,0.4,0.2,1.1,0.6c2.4,1.4,3.2,4.5,1.8,6.8C390.3,183.5,388.6,184.5,386.8,184.5z"/>
	<path class="st0" d="M176,487c-2.8,0-5-2.2-5-5v-1c0-2.8,2.2-5,5-5s5,2.2,5,5v1C181,484.8,178.8,487,176,487z M176,466
		c-2.8,0-5-2.2-5-5v-1c0-2.8,2.2-5,5-5s5,2.2,5,5v1C181,463.8,178.8,466,176,466z M176,445c-2.8,0-5-2.2-5-5v-1c0-2.8,2.2-5,5-5
		s5,2.2,5,5v1C181,442.8,178.8,445,176,445z M176,424c-2.8,0-5-2.2-5-5v-1c0-2.8,2.2-5,5-5s5,2.2,5,5v1C181,421.8,178.8,424,176,424
		z M176,403c-2.8,0-5-2.2-5-5v-1c0-2.8,2.2-5,5-5s5,2.2,5,5v1C181,400.8,178.8,403,176,403z M176,382c-2.8,0-5-2.2-5-5v-1
		c0-2.8,2.2-5,5-5s5,2.2,5,5v1C181,379.8,178.8,382,176,382z M176,361c-2.8,0-5-2.2-5-5v-1c0-2.8,2.2-5,5-5s5,2.2,5,5v1
		C181,358.8,178.8,361,176,361z M176,340c-2.8,0-5-2.2-5-5v-1c0-2.8,2.2-5,5-5s5,2.2,5,5v1C181,337.8,178.8,340,176,340z M176,319
		c-2.8,0-5-2.2-5-5v-1c0-2.8,2.2-5,5-5s5,2.2,5,5v1C181,316.8,178.8,319,176,319z M176,298c-2.8,0-5-2.2-5-5v-1c0-2.8,2.2-5,5-5
		s5,2.2,5,5v1C181,295.8,178.8,298,176,298z M176,277c-2.8,0-5-2.2-5-5v-1c0-2.8,2.2-5,5-5s5,2.2,5,5v1C181,274.8,178.8,277,176,277
		z M176,256c-2.8,0-5-2.2-5-5v-1c0-2.8,2.2-5,5-5s5,2.2,5,5v1C181,253.8,178.8,256,176,256z"/>
	<path class="st0" d="M143,500.5c-1,0-1.9-0.3-2.7-0.8c-0.3-0.2-0.6-0.4-1-0.6c-2.3-1.5-2.9-4.6-1.4-6.9s4.6-2.9,6.9-1.4
		c0.1,0,0.1,0.1,0.2,0.1l0.7,0.5c2.3,1.5,3,4.6,1.4,6.9C146.2,499.6,144.6,500.4,143,500.5L143,500.5z M127.6,486.3
		c-1.5,0-2.8-0.6-3.8-1.8l-0.7-0.8c-1.8-2.1-1.5-5.3,0.6-7c2.1-1.8,5.3-1.5,7.1,0.6l0.6,0.7c1.8,2.1,1.6,5.3-0.5,7.1
		C130,485.9,128.8,486.3,127.6,486.3z M115.4,469.2c-1.8,0-3.4-0.9-4.3-2.5c-0.2-0.3-0.4-0.6-0.5-0.9c-1.5-2.3-0.8-5.4,1.5-6.9
		c2.3-1.5,5.4-0.8,6.9,1.5c0.1,0.1,0.1,0.2,0.2,0.4l0.5,0.8c1.4,2.4,0.6,5.4-1.7,6.8C117.2,469,116.3,469.2,115.4,469.2z
		 M106.2,450.4c-2,0-3.9-1.2-4.6-3.1l-0.4-1c-1-2.6,0.2-5.5,2.8-6.5s5.5,0.2,6.5,2.8l0,0l0.3,0.9c1,2.6-0.2,5.5-2.8,6.5
		C107.5,450.2,106.8,450.4,106.2,450.4L106.2,450.4z M99.6,430.5c-2.3,0-4.3-1.5-4.8-3.7l-0.2-1c-0.8-2.6,0.7-5.4,3.4-6.2
		c2.6-0.8,5.4,0.7,6.2,3.4c0,0.1,0.1,0.2,0.1,0.4l0.2,0.9c0.7,2.7-0.9,5.4-3.6,6.1C100.5,430.4,100.1,430.4,99.6,430.5z M95.4,409.9
		c-2.5,0-4.6-1.8-4.9-4.2l-0.2-1c-0.4-2.7,1.5-5.3,4.2-5.7c2.7-0.4,5.3,1.5,5.7,4.2l0,0l0.1,1c0.4,2.7-1.5,5.3-4.2,5.7c0,0,0,0,0,0
		C95.9,409.9,95.7,409.9,95.4,409.9z M93.3,389c-2.7,0-4.8-2.1-5-4.7v-1c-0.1-2.8,2-5.1,4.7-5.3c2.8-0.1,5.1,2,5.3,4.7l0.1,1
		c0.2,2.8-1.9,5.1-4.7,5.3c0,0,0,0,0,0L93.3,389z M93,368h-0.2c-2.7-0.1-4.9-2.4-4.8-5.1v-1c0.1-2.8,2.4-4.9,5.2-4.8
		s4.9,2.4,4.8,5.2l0,0v1C97.9,365.9,95.7,368,93,368z M94.7,347.1c-0.2,0-0.5,0-0.7,0c-2.7-0.4-4.6-2.9-4.3-5.6c0,0,0,0,0,0l0.1-1
		c0.4-2.7,2.9-4.6,5.6-4.3c2.7,0.4,4.6,2.9,4.3,5.6l-0.1,1C99.3,345.3,97.1,347.2,94.7,347.1L94.7,347.1z M98.7,326.5
		c-2.8,0-5-2.2-5-5c0-0.4,0.1-0.8,0.2-1.3l0.2-1c0.7-2.7,3.4-4.3,6.1-3.6s4.3,3.4,3.6,6.1l-0.2,1C102.9,325,100.9,326.5,98.7,326.5
		L98.7,326.5z M105.2,306.6c-2.8,0-5-2.2-5-5c0-0.6,0.1-1.3,0.4-1.9l0.4-1c1.1-2.6,4-3.8,6.5-2.7s3.8,4,2.7,6.5l0,0l-0.4,0.9
		C109.1,305.4,107.2,306.6,105.2,306.6L105.2,306.6z M114.4,287.7c-2.8,0-5-2.2-5-5c0-0.9,0.2-1.7,0.7-2.5l0.5-0.9
		c1.4-2.4,4.5-3.2,6.8-1.8c2.4,1.4,3.2,4.5,1.8,6.9l-0.5,0.8C117.9,286.8,116.2,287.8,114.4,287.7L114.4,287.7z M126.3,270.4
		c-2.8,0-5-2.2-5-5c0-1.1,0.4-2.2,1.1-3.1l0.7-0.8c1.7-2.1,4.9-2.5,7-0.7c2.1,1.7,2.5,4.9,0.7,7l0,0l-0.6,0.7
		C129.2,269.7,127.8,270.5,126.3,270.4L126.3,270.4z M140.6,255.1c-2.8,0-5-2.2-5-5c0-1.4,0.6-2.7,1.6-3.7l0.8-0.7
		c2.1-1.8,5.2-1.6,7.1,0.5c1.8,2,1.6,5.1-0.4,6.9l-0.7,0.6C143,254.6,141.8,255.1,140.6,255.1L140.6,255.1z M157.3,242.4
		c-2.8,0-5-2.2-5-5c0-1.8,0.9-3.4,2.5-4.3c0.7-0.4,1.1-0.6,1.1-0.6c2.5-1.2,5.5-0.2,6.7,2.3c1.1,2.4,0.3,5.2-2,6.5l-0.7,0.4
		C159.1,242.1,158.2,242.4,157.3,242.4L157.3,242.4z"/>
	<path class="st0" d="M209.8,500.5c-2.8,0-5-2.3-5-5c0-1.7,0.9-3.2,2.3-4.2l0.7-0.5c2.2-1.6,5.4-1.1,7,1.1s1.1,5.4-1.1,7
		c-0.1,0-0.1,0.1-0.2,0.1l-1,0.6C211.7,500.2,210.7,500.4,209.8,500.5z M225.2,486.3c-2.8,0-5-2.2-5-5c0-1.2,0.4-2.4,1.2-3.3
		l0.6-0.7c1.7-2.2,4.9-2.5,7-0.8c2.2,1.7,2.5,4.9,0.8,7c-0.1,0.1-0.1,0.1-0.2,0.2l-0.7,0.8C228.1,485.6,226.7,486.3,225.2,486.3
		L225.2,486.3z M237.4,469.2c-0.9,0-1.8-0.2-2.5-0.7c-2.4-1.4-3.2-4.5-1.8-6.8c0,0,0,0,0,0l0.5-0.8c1.4-2.4,4.5-3.2,6.8-1.8
		c2.4,1.4,3.2,4.4,1.8,6.8l-0.5,0.9C240.8,468.3,239.2,469.2,237.4,469.2z M246.6,450.4c-0.6,0-1.3-0.1-1.9-0.4
		c-2.6-1-3.8-3.9-2.8-6.5c0,0,0,0,0,0l0.4-0.9c1-2.6,3.9-3.8,6.5-2.8c2.6,1,3.8,3.9,2.8,6.5l0,0l-0.4,1
		C250.5,449.2,248.7,450.4,246.6,450.4L246.6,450.4z M253.2,430.5c-2.8,0-5-2.2-5-5c0-0.4,0.1-0.9,0.2-1.3l0.2-0.9
		c0.7-2.7,3.4-4.3,6.1-3.6c2.7,0.7,4.3,3.4,3.6,6.1l-0.3,1C257.5,428.9,255.5,430.4,253.2,430.5z M257.4,409.9c-0.3,0-0.5,0-0.8,0
		c-2.7-0.4-4.6-3-4.2-5.7c0,0,0,0,0,0l0.1-1c0.5-2.7,3.1-4.5,5.8-4c2.6,0.5,4.3,2.8,4.1,5.4l-0.1,1
		C262,408.1,259.9,409.9,257.4,409.9z M259.5,389h-0.3c-2.8-0.2-4.9-2.5-4.7-5.3v-1c0.1-2.8,2.5-4.9,5.3-4.7
		c2.8,0.1,4.9,2.5,4.7,5.3l-0.1,1C264.4,386.9,262.2,389,259.5,389z M259.9,368c-2.7,0-4.9-2.1-5-4.9v-1c-0.1-2.8,2.1-5.1,4.8-5.2
		s5.1,2.1,5.2,4.8v1c0.1,2.8-2.1,5.1-4.8,5.2c0,0,0,0-0.1,0H259.9z M258.2,347.1c-2.5,0-4.7-1.8-5-4.3l-0.1-1
		c-0.5-2.7,1.4-5.3,4.1-5.8c2.7-0.5,5.3,1.4,5.8,4.1c0,0.1,0,0.2,0,0.3l0.1,1c0.4,2.7-1.5,5.3-4.3,5.6c0,0,0,0,0,0
		C258.6,347.1,258.4,347.1,258.2,347.1L258.2,347.1z M254.2,326.5c-2.3,0-4.3-1.5-4.8-3.7l-0.2-1c-0.7-2.7,0.9-5.4,3.6-6.1
		c2.7-0.7,5.4,0.9,6.1,3.6l0.3,1c0.7,2.7-0.9,5.4-3.6,6.1C255.1,326.5,254.6,326.5,254.2,326.5L254.2,326.5z M247.6,306.6
		c-2,0-3.9-1.2-4.6-3.1l-0.4-0.9c-1.1-2.5,0-5.5,2.5-6.6c2.5-1.1,5.5,0,6.6,2.5c0,0.1,0.1,0.2,0.1,0.3l0.4,1c1,2.6-0.2,5.5-2.8,6.5
		C248.9,306.5,248.3,306.6,247.6,306.6L247.6,306.6z M238.4,287.7c-1.8,0-3.4-0.9-4.3-2.5l-0.5-0.8c-1.4-2.4-0.6-5.4,1.8-6.9
		c2.4-1.4,5.4-0.6,6.9,1.8l0.5,0.9c1.4,2.4,0.6,5.4-1.8,6.8C240.2,287.5,239.3,287.7,238.4,287.7L238.4,287.7z M226.6,270.5
		c-1.5,0-3-0.7-3.9-1.9l-0.6-0.7c-1.7-2.1-1.4-5.3,0.7-7c2.1-1.7,5.3-1.4,7,0.7l0.7,0.8c1.7,2.2,1.4,5.3-0.8,7
		C228.8,270.1,227.7,270.4,226.6,270.5z M212.3,255.1c-1.3,0-2.5-0.5-3.4-1.3l-0.7-0.6c-2-1.9-2.1-5.1-0.2-7.1
		c1.8-2,4.9-2.1,6.9-0.4l0.8,0.7c2,1.9,2.2,5,0.3,7.1C215,254.5,213.7,255.1,212.3,255.1L212.3,255.1z M195.6,242.4
		c-0.9,0-1.8-0.2-2.5-0.7c-0.4-0.2-0.7-0.4-0.7-0.4c-2.4-1.3-3.4-4.3-2.1-6.8s4.3-3.4,6.8-2.1c0,0,0.4,0.2,1.1,0.6
		c2.4,1.4,3.2,4.5,1.8,6.8C199,241.4,197.3,242.4,195.6,242.4L195.6,242.4z"/>
</g>
<text transform="matrix(0.6411 0 0 1 17 581.708)" class="st1 st2">Created by Jino</text>
<text transform="matrix(0.6411 0 0 1 17 599.6572)" class="st1 st2">from the Noun Project</text>
</svg>
