<?xml version="1.0" encoding="utf-8"?>
<!-- Generator: Adobe Illustrator 25.0.1, SVG Export Plug-In . SVG Version: 6.00 Build 0)  -->
<svg version="1.1" id="Layer_1" xmlns="http://www.w3.org/2000/svg" xmlns:xlink="http://www.w3.org/1999/xlink" x="0px" y="0px"
	 viewBox="0 0 64 80" style="enable-background:new 0 0 64 80;" xml:space="preserve">
<style type="text/css">
	.st0{fill:#31B6EC;}
	.st1{font-family:'HelveticaNeue-Bold';}
	.st2{font-size:2.8184px;}
</style>
<path class="st0" d="M16.3,6.4c-7,0-12.7,5.7-12.7,12.7H29C29,12.1,23.3,6.4,16.3,6.4C16.3,6.4,16.3,6.4,16.3,6.4z M6.9,17.7
	c0-0.3,0.1-0.6,0.1-0.9c0-0.2,0.1-0.4,0.1-0.5c1.1-4.4,5.1-7.4,9.6-7.4c0.6,0,1.1,0,1.7,0.1c-3.8,0.7-6.9,3.5-7.9,7.3h15.2
	c0,0.5,0,1,0,1.4H6.9z"/>
<path class="st0" d="M28.9,21H3.7c-0.8,0.1-1.4,0.7-1.3,1.5c0.1,0.7,0.6,1.2,1.3,1.3h3.7l-1.7,5.1h3l1.7-5.1h12l1.7,5.1h3l-1.7-5.1
	H29c0.8,0.1,1.5-0.5,1.5-1.3c0.1-0.8-0.5-1.5-1.3-1.5C29.1,21,29,21,28.9,21L28.9,21z"/>
<path class="st0" d="M18.8,1.6c0-1.4-4.9-1.4-4.9,0c0,0.8,0.4,1.6,1.2,2.1l-0.5,1.6c1.2-0.2,2.4-0.2,3.6,0l-0.5-1.6
	C18.3,3.2,18.8,2.4,18.8,1.6z"/>
<path class="st0" d="M47.7,6.4c-7,0-12.7,5.7-12.7,12.7c0,0,0,0,0,0h25.4C60.4,12.1,54.7,6.4,47.7,6.4z M38.3,17.7
	c0-0.3,0.1-0.6,0.1-0.9c0-0.2,0.1-0.4,0.1-0.5c1.2-4.4,5.1-7.4,9.6-7.4c0.6,0,1.1,0.1,1.7,0.1C46,9.6,43,12.5,42,16.3h15.1
	c0,0.5,0,1,0,1.4H38.3z"/>
<path class="st0" d="M60.3,20.9H35.1c-0.8,0.1-1.4,0.7-1.3,1.5c0.1,0.7,0.6,1.2,1.3,1.3h3.7L37,28.9h3l1.7-5.1h12l1.7,5.1h3
	l-1.7-5.1h3.7c0.8,0.1,1.5-0.5,1.5-1.3c0.1-0.8-0.5-1.5-1.3-1.5C60.5,20.9,60.4,20.9,60.3,20.9L60.3,20.9z"/>
<path class="st0" d="M50.2,1.5c0-1.4-4.9-1.4-4.9,0c0,0.8,0.4,1.6,1.1,2.1l-0.5,1.6c1.2-0.2,2.4-0.2,3.6,0L49,3.6
	C49.7,3.2,50.1,2.4,50.2,1.5z"/>
<path class="st0" d="M61.2,31.4H2.8c-1,0-1.8,0.8-1.8,1.8l0,0v19.6c0,0.9,0.7,1.7,1.7,1.7c0.1,0,0.2,0,0.3,0
	c0.8-0.1,1.7-0.4,2.4-0.8c1.9-0.9,3.2-2.2,6.7-2.2c1,0,2.1,0.1,3.1,0.4c0.4,0.1,0.8,0.3,1.1,0.4V39.2h2.4v14.5c1.4,0.7,2.9,1,4.5,1
	h0.3V39.2H26v15.1c0.7-0.2,1.4-0.4,2-0.8c0.9-0.5,1.9-1,2.8-1.4V39.2h2.4v12.4c0.3,0,0.7,0,1.1,0c1.2,0,2.4,0.2,3.6,0.6h0.1v-13h2.5
	v14.2c1.5,0.8,3.1,1.2,4.8,1.2V39.2h2.4v15.2c1-0.2,1.9-0.6,2.8-1.1c1.8-1.2,3.9-1.8,6-1.8c1.4,0,2.7,0.2,4,0.8l0,0
	c0.9,0.4,1.9,0,2.3-0.8c0.1-0.2,0.2-0.5,0.2-0.7V33.2C63,32.2,62.2,31.4,61.2,31.4L61.2,31.4z"/>
<path class="st0" d="M6.5,56l-0.3,0.2v4.7c-0.1,1.4,1,2.7,2.5,2.8s2.7-1,2.8-2.5c0-0.1,0-0.2,0-0.3v-6.8c-1.3,0.1-2.5,0.5-3.6,1.2
	C7.3,55.5,6.9,55.8,6.5,56z"/>
<path class="st0" d="M52.6,55.1v5.8c-0.1,1.4,1,2.7,2.5,2.8s2.7-1,2.8-2.5c0-0.1,0-0.2,0-0.3v-6.7c-0.4-0.1-0.9-0.1-1.3-0.1
	C55.2,54,53.8,54.4,52.6,55.1z"/>
<text transform="matrix(1 0 0 1 0.9999 75.7207)" class="st1 st2">Created by Arafat Uddin</text>
<text transform="matrix(1 0 0 1 0.9999 78.5391)" class="st1 st2">from the Noun Project</text>
</svg>

