<?xml version="1.0" encoding="utf-8"?>
<!-- Generator: Adobe Illustrator 25.0.1, SVG Export Plug-In . SVG Version: 6.00 Build 0)  -->
<svg version="1.1" id="Layer_1" xmlns="http://www.w3.org/2000/svg" xmlns:xlink="http://www.w3.org/1999/xlink" x="0px" y="0px"
	 viewBox="0 0 64 80" style="enable-background:new 0 0 64 80;" xml:space="preserve">
<style type="text/css">
	.st0{fill:#31B6EC;}
	.st1{font-family:'HelveticaNeue-Bold';}
	.st2{font-size:3.0771px;}
</style>
<g>
	<path class="st0" d="M22,21c0,0.6,0.4,1,1,1c1.7,0,3,1.3,3,3c0,0.6,0.4,1,1,1s1-0.4,1-1c0-1.7,1.3-3,3-3c0.6,0,1-0.4,1-1
		s-0.4-1-1-1c-1.7,0-3-1.3-3-3c0-0.6-0.4-1-1-1s-1,0.4-1,1c0,1.7-1.3,3-3,3C22.4,20,22,20.4,22,21z"/>
	<path class="st0" d="M23,12c-1.7,0-3-1.3-3-3c0-0.6-0.4-1-1-1s-1,0.4-1,1c0,1.7-1.3,3-3,3c-0.6,0-1,0.4-1,1s0.4,1,1,1
		c1.7,0,3,1.3,3,3c0,0.6,0.4,1,1,1s1-0.4,1-1c0-1.7,1.3-3,3-3c0.6,0,1-0.4,1-1S23.6,12,23,12z"/>
	<path class="st0" d="M12,32c0,1.1,0.9,2,2,2h36c1.1,0,2-0.9,2-2c0-1.1-0.9-2-2-2H14C12.9,30,12,30.9,12,32z"/>
	<rect x="18" y="50" class="st0" width="28" height="10"/>
	<rect x="18" y="36" class="st0" width="28" height="4"/>
	<rect x="18" y="42" class="st0" width="28" height="6"/>
	<path class="st0" d="M58.9,4c-0.3,0-0.6,0.1-0.8,0.3L44.4,18l1.6,1.6L59.7,5.9c0.4-0.4,0.4-1.1,0-1.6C59.5,4.1,59.2,4,58.9,4z"/>
	<rect x="40.7" y="20.4" transform="matrix(0.7071 -0.7071 0.7071 0.7071 -2.7548 36.3492)" class="st0" width="3.7" height="2.2"/>
	<rect x="38" y="10" class="st0" width="2" height="2"/>
	<rect x="38" y="14" class="st0" width="2" height="2"/>
	<rect x="36" y="12" class="st0" width="2" height="2"/>
	<rect x="40" y="12" class="st0" width="2" height="2"/>
</g>
<text transform="matrix(1 0 0 1 1.3626 74.2222)" class="st1 st2">Created by Smalllike</text>
<text transform="matrix(1 0 0 1 1.3626 77.2993)" class="st1 st2">from the Noun Project</text>
</svg>
